#N canvas -9 -9 1920 976 12;
#X obj 60 66 inlet~;
#X obj 133 66 inlet~;
#X obj 190 67 inlet;
#X obj 190 171 tgl 15 0 empty empty empty 17 7 0 10 -262144 -1 -1 0
1;
#X obj 172 190 *~;
#X obj 78 155 tgl 15 0 empty empty empty 17 7 0 10 -262144 -1 -1 1
1;
#X obj 60 179 *~;
#X obj 105 234 +~;
#X obj 190 146 == 0;
#X text 100 21 switches audio signals;
#X obj 105 258 outlet~;
#X connect 0 0 6 0;
#X connect 1 0 4 0;
#X connect 2 0 8 0;
#X connect 2 0 5 0;
#X connect 3 0 4 1;
#X connect 4 0 7 1;
#X connect 5 0 6 1;
#X connect 6 0 7 0;
#X connect 7 0 10 0;
#X connect 8 0 3 0;
