#N canvas 49 7 1920 997 12;
#X obj 42 398 pack f f f;
#X msg 43 425 \$1 \, \$2 \$3;
#X obj 43 449 vline~;
#X obj 43 473 tabread4~ Buffer;
#X obj 42 554 *~;
#X obj 42 12 inlet;
#X obj 233 372 / 1;
#X obj 235 337 t b f;
#X floatatom 42 144 5 0 0 0 - - -;
#X floatatom 96 249 5 0 0 0 - - -;
#X obj 42 764 outlet~;
#X obj 247 507 tabread~ hanning;
#X obj 41 727 *~ 0.5;
#X obj 246 466 vline~;
#X msg 247 436 0 \, 256 \$1;
#X obj 73 362 +;
#X obj 307 191 sel 1;
#X obj 351 192 sel 0;
#X msg 307 215 -1;
#X msg 349 218 1;
#X obj 99 333 *;
#X obj 333 40 r reverse_grain;
#X floatatom 40 76 5 0 0 0 - - -;
#X floatatom 129 81 5 0 0 0 - - -;
#X text 174 76 g dur;
#X text 2 100 playhead position;
#X obj 40 52 unpack f f f, f 28;
#X floatatom 40 76 5 0 0 0 - - -;
#X floatatom 235 79 5 0 0 0 - - -;
#X text 257 57 g-speed;
#X obj 60 575 r bit_depth;
#X obj 41 629 bitcru;
#X obj 80 599 r bit_volume;
#X obj 398 190 loadbang;
#X obj 42 684 random_panning;
#X obj 105 637 r grain_bang;
#X obj 137 661 r amount;
#X obj 137 769 outlet~;
#X obj 138 726 *~ 0.5;
#X obj 42 174 t f f;
#X obj 137 250 r samplerate_divided;
#X obj 92 296 *;
#X connect 0 0 1 0;
#X connect 1 0 2 0;
#X connect 2 0 3 0;
#X connect 3 0 4 0;
#X connect 4 0 31 0;
#X connect 5 0 26 0;
#X connect 6 0 0 2;
#X connect 6 0 14 0;
#X connect 7 0 6 0;
#X connect 7 1 6 1;
#X connect 8 0 39 0;
#X connect 9 0 6 0;
#X connect 9 0 41 0;
#X connect 11 0 4 1;
#X connect 12 0 10 0;
#X connect 13 0 11 0;
#X connect 14 0 13 0;
#X connect 15 0 0 1;
#X connect 16 0 18 0;
#X connect 17 0 19 0;
#X connect 18 0 20 1;
#X connect 19 0 20 1;
#X connect 20 0 15 1;
#X connect 21 0 16 0;
#X connect 21 0 17 0;
#X connect 22 0 8 0;
#X connect 23 0 9 0;
#X connect 26 0 22 0;
#X connect 26 0 27 0;
#X connect 26 1 23 0;
#X connect 26 2 28 0;
#X connect 28 0 7 0;
#X connect 30 0 31 1;
#X connect 31 0 34 1;
#X connect 31 0 34 0;
#X connect 32 0 31 2;
#X connect 33 0 19 0;
#X connect 34 0 12 0;
#X connect 34 1 38 0;
#X connect 35 0 34 2;
#X connect 36 0 34 3;
#X connect 38 0 37 0;
#X connect 39 0 0 0;
#X connect 39 1 15 0;
#X connect 40 0 41 1;
#X connect 41 0 20 0;
