#N canvas -8 -8 1920 997 12;
#X obj 71 82 bng 50 250 50 0 rec_bang REC RECORD 0 -5 0 10 -257985
-1 -1;
#N canvas 0 50 1187 700 (subpatch) 0;
#X array Buffer 441000 float 4;
#X coords 0 1 440999 -1 500 300 1 0 0;
#X restore 293 74 graph;
#X obj 134 83 bng 50 250 50 0 stop_audio STOP_AUDIO STOP_AUDIO 0 -5
0 10 -258113 -1 -1;
#X obj 125 163 hsl 128 15 0 1 0 0 master MASTER master -2 -8 0 10 -262144
-1 -1 0 1;
#X floatatom 215 358 5 10 600 0 grain-duration G-DUR g-dur;
#X floatatom 216 378 5 0.1 3 0 grain-pitch grain_pitch -;
#X obj 126 199 hsl 128 15 10 20000 0 0 buffer_len BUFFER_LEN buffer_length
-2 -8 0 10 -262144 -1 -1 6347 1;
#X floatatom 216 333 10 0 0 0 buffer_len buffer_len -;
#X obj 204 85 bng 50 250 50 0 del_buffer DEL_BUFFER DELETE_BUFFER 0
-5 0 10 -4034 -1 -1;
#X floatatom 215 401 5 0 10000 0 jitter jitter -;
#X floatatom 213 427 5 0 500 0 playhead_speed_interval PLAY_HEAD play_head
;
#X obj 126 261 hsl 128 15 0.1 3 0 0 grain_pitch GRAIN_PITCH grain_pitch
-2 -8 0 10 -262144 -1 -1 3941 1;
#X obj 126 231 hsl 128 15 0 5000 0 0 jitter JITTER jitter -2 -8 0 10
-262144 -1 -1 0 1;
#X floatatom 212 451 5 0 1 0 panning_amount AMOUNT amount;
#X obj 294 74 hsl 500 300 0 441000 0 0 playhead_pos sample_count empty
-2 -8 0 10 -262144 -1 -1 2227 1;
#X floatatom 213 482 5 1 4 0 random_octave RANDOM_OCTAVE random_octave
;
#X obj 278 685 tgl 30 0 reverse_grain REVERSE_GRAIN Reverse_Grain -50
-10 0 10 -52451 -1 -1 0 1;
#N canvas 647 60 1920 976 midi_settings 1;
#X obj 40 238 s REC;
#X obj 682 62 s MASTER;
#X text 57 18 MIDI & Default SETTINGS;
#X obj 654 190 s BUFFER_LEN;
#X obj 713 137 loadbang;
#X msg 713 161 10000;
#X obj 944 473 loadbang;
#X obj 897 527 s PLAY_HEAD;
#X msg 944 497 70;
#X obj 438 51 loadbang;
#X obj 395 105 s G-DUR;
#X msg 438 75 100;
#X obj 1039 345 loadbang;
#X msg 1039 369 1;
#X obj 1039 443 s RANDOM_OCTAVE;
#X obj 40 159 notein;
#X obj 40 185 stripnote;
#X obj 682 38 / 127;
#X obj 682 14 ctlin 62;
#X obj 652 112 ctlin 16;
#X obj 654 137 / 127;
#X obj 654 161 * 15000;
#X obj 40 209 sel 1;
#X obj 667 393 notein;
#X obj 667 419 stripnote;
#X obj 667 443 sel 27;
#X obj 667 472 s STOP_AUDIO;
#X obj 125 165 notein;
#X obj 125 191 stripnote;
#X obj 125 244 s DEL_BUFFER;
#X obj 125 215 sel 4;
#X obj 40 278 notein;
#X obj 40 304 stripnote;
#X obj 41 360 s LIVE;
#X obj 40 328 sel 3;
#X obj 121 364 s REVERSE_PLAYBACK;
#X obj 121 279 notein;
#X obj 121 305 stripnote;
#X obj 121 329 sel 6;
#X obj 256 278 notein;
#X obj 256 304 stripnote;
#X obj 256 328 sel 9;
#X obj 256 363 s REVERSE_GRAIN;
#X obj 395 41 / 127;
#X obj 897 447 ctlin 17;
#X obj 897 471 / 127;
#X obj 897 495 * 300;
#X obj 1103 341 / 127;
#X obj 1103 365 * 4;
#X obj 1103 389 int;
#X obj 1105 315 ctlin 18;
#X obj 528 15 ctlin 22;
#X obj 528 39 / 127;
#X obj 528 63 * 3000;
#X obj 528 87 s JITTER;
#X obj 393 16 ctlin 21;
#X obj 823 47 / 127;
#X obj 966 47 / 127;
#X obj 966 23 ctlin 59;
#X obj 966 71 * 5;
#X obj 815 184 / 127;
#X obj 815 213 s AMOUNT;
#X obj 966 99 s FREQ_MOD_FREQ;
#X obj 823 99 s FREQ_MOD_AMOUNT;
#X obj 823 23 ctlin 58;
#X obj 815 160 ctlin 60;
#X obj 816 313 / 127;
#X obj 816 337 * 3;
#X obj 816 289 ctlin 55;
#X obj 816 361 + 0.05;
#X obj 816 394 s PLAYBACK_SPEED;
#X obj 881 344 loadbang;
#X msg 881 368 1;
#X obj 1026 180 / 127;
#X obj 1026 204 * 3;
#X obj 1026 228 + 0.05;
#X obj 1091 211 loadbang;
#X msg 1091 235 1;
#X obj 1026 261 s GRAIN_PITCH;
#X obj 1026 156 ctlin 20;
#X obj 253 248 s PLAYBACK_RESET;
#X obj 254 165 notein;
#X obj 254 191 stripnote;
#X obj 254 215 sel 7;
#X obj 384 165 notein;
#X obj 384 191 stripnote;
#X obj 384 215 sel 8;
#X obj 383 248 s GRAIN_PITCH_RESET;
#X obj 879 160 loadbang;
#X msg 879 184 0;
#X obj 891 38 loadbang;
#X msg 891 62 0;
#N canvas 722 124 958 919 keyboard_controls 0;
#X obj 176 328 s GRAIN_PITCH;
#X obj 38 21 notein;
#X obj 38 237 mtof;
#X obj 38 261 / 261.63;
#X obj 57 80 spigot;
#X obj 177 300 spigot;
#X obj 110 14 tgl 15 0 empty use_keyboard use_midi_keyboard 17 7 0
10 -262144 -1 -1 1 1;
#N canvas 832 222 1042 569 Amplitude_Envelope 0;
#X obj 262 139 * 0.9;
#X obj 195 110 t f f;
#X floatatom 417 87 5 0 0 0 Sustain - -;
#X floatatom 254 56 5 0 0 0 Attack - -;
#X floatatom 474 125 5 0 0 0 Release - -;
#X obj 249 242 vline~;
#X obj 229 265 outlet~;
#X obj 205 9 inlet;
#X obj 205 33 / 127;
#X obj 254 9 inlet;
#X obj 417 16 inlet;
#X obj 474 16 inlet;
#X obj 138 254 print;
#X floatatom 119 78 5 0 0 0 - - -;
#X obj 355 411 snapshot~;
#X obj 350 365 metro 100;
#X obj 350 339 loadbang;
#X floatatom 355 435 5 0 0 0 - - -;
#X obj 419 336 tgl 15 0 empty empty empty 17 7 0 10 -262144 -1 -1 0
1;
#X msg 316 247 velocity attack 0 \, 0.9*velocity decay attack \, 0
release sustain, f 65;
#X obj 230 190 pack f f f f f f;
#X floatatom 319 81 5 0 500 0 Decay - -;
#X obj 319 10 inlet;
#X msg 229 215 \$1 \$2 0 \, \$3 \$4 \$2 \, 0 \$5 \$6;
#X connect 0 0 20 2;
#X connect 1 0 20 0;
#X connect 1 1 0 0;
#X connect 2 0 20 4;
#X connect 3 0 20 1;
#X connect 4 0 20 5;
#X connect 5 0 6 0;
#X connect 5 0 14 0;
#X connect 7 0 8 0;
#X connect 8 0 1 0;
#X connect 8 0 13 0;
#X connect 9 0 3 0;
#X connect 10 0 2 0;
#X connect 11 0 4 0;
#X connect 14 0 17 0;
#X connect 15 0 14 0;
#X connect 16 0 15 0;
#X connect 18 0 15 0;
#X connect 20 0 23 0;
#X connect 21 0 20 3;
#X connect 22 0 21 0;
#X connect 23 0 5 0;
#X connect 23 0 12 0;
#X restore 57 182 pd Amplitude_Envelope;
#X obj 355 323 throw~ amp_envelope;
#X obj 105 92 r attack;
#X obj 165 140 r sustain;
#X obj 201 156 r release;
#X obj 129 119 r decay;
#X obj 394 145 sig~;
#X obj 354 234 audio_switch;
#X msg 392 119 1;
#X obj 109 37 t f f f f, f 47;
#X text 26 293 relative to middle C pitch;
#X connect 1 0 2 0;
#X connect 1 1 4 0;
#X connect 2 0 3 0;
#X connect 3 0 5 0;
#X connect 4 0 7 0;
#X connect 5 0 0 0;
#X connect 6 0 16 0;
#X connect 7 0 14 0;
#X connect 9 0 7 1;
#X connect 10 0 7 3;
#X connect 11 0 7 4;
#X connect 12 0 7 2;
#X connect 13 0 14 1;
#X connect 14 0 8 0;
#X connect 15 0 13 0;
#X connect 16 0 4 1;
#X connect 16 1 5 1;
#X connect 16 2 15 0;
#X connect 16 3 14 2;
#X restore 67 45 pd keyboard_controls;
#X obj 378 281 notein;
#X obj 378 307 stripnote;
#X obj 377 364 s FIXED_POSITION;
#X obj 378 331 sel 12;
#X obj 516 278 notein;
#X obj 516 304 stripnote;
#X obj 515 361 s USE_KEYBOARD;
#X obj 516 328 sel 15;
#X obj 395 72 * 600;
#X obj 685 560 notein;
#X obj 685 586 stripnote;
#X obj 685 639 s SAVE;
#X obj 823 71 * 50;
#X obj 685 610 sel 26;
#X connect 4 0 5 0;
#X connect 5 0 3 0;
#X connect 6 0 8 0;
#X connect 8 0 7 0;
#X connect 9 0 11 0;
#X connect 11 0 10 0;
#X connect 12 0 13 0;
#X connect 13 0 14 0;
#X connect 15 0 16 0;
#X connect 15 1 16 1;
#X connect 16 0 22 0;
#X connect 17 0 1 0;
#X connect 18 0 17 0;
#X connect 19 0 20 0;
#X connect 20 0 21 0;
#X connect 21 0 3 0;
#X connect 22 0 0 0;
#X connect 23 0 24 0;
#X connect 23 1 24 1;
#X connect 24 0 25 0;
#X connect 25 0 26 0;
#X connect 27 0 28 0;
#X connect 27 1 28 1;
#X connect 28 0 30 0;
#X connect 30 0 29 0;
#X connect 31 0 32 0;
#X connect 31 1 32 1;
#X connect 32 0 34 0;
#X connect 34 0 33 0;
#X connect 36 0 37 0;
#X connect 36 1 37 1;
#X connect 37 0 38 0;
#X connect 38 0 35 0;
#X connect 39 0 40 0;
#X connect 39 1 40 1;
#X connect 40 0 41 0;
#X connect 41 0 42 0;
#X connect 43 0 101 0;
#X connect 44 0 45 0;
#X connect 45 0 46 0;
#X connect 46 0 7 0;
#X connect 47 0 48 0;
#X connect 48 0 49 0;
#X connect 49 0 14 0;
#X connect 50 0 47 0;
#X connect 51 0 52 0;
#X connect 52 0 53 0;
#X connect 53 0 54 0;
#X connect 55 0 43 0;
#X connect 56 0 105 0;
#X connect 57 0 59 0;
#X connect 58 0 57 0;
#X connect 59 0 62 0;
#X connect 60 0 61 0;
#X connect 64 0 56 0;
#X connect 65 0 60 0;
#X connect 66 0 67 0;
#X connect 67 0 69 0;
#X connect 68 0 66 0;
#X connect 69 0 70 0;
#X connect 71 0 72 0;
#X connect 72 0 70 0;
#X connect 73 0 74 0;
#X connect 74 0 75 0;
#X connect 75 0 78 0;
#X connect 76 0 77 0;
#X connect 77 0 78 0;
#X connect 79 0 73 0;
#X connect 81 0 82 0;
#X connect 81 1 82 1;
#X connect 82 0 83 0;
#X connect 83 0 80 0;
#X connect 84 0 85 0;
#X connect 84 1 85 1;
#X connect 85 0 86 0;
#X connect 86 0 87 0;
#X connect 88 0 89 0;
#X connect 89 0 61 0;
#X connect 90 0 91 0;
#X connect 91 0 63 0;
#X connect 93 0 94 0;
#X connect 93 1 94 1;
#X connect 94 0 96 0;
#X connect 96 0 95 0;
#X connect 97 0 98 0;
#X connect 97 1 98 1;
#X connect 98 0 100 0;
#X connect 100 0 99 0;
#X connect 101 0 10 0;
#X connect 102 0 103 0;
#X connect 102 1 103 1;
#X connect 103 0 106 0;
#X connect 105 0 63 0;
#X connect 106 0 104 0;
#X restore 358 426 pd midi_settings;
#N canvas 777 26 958 966 main_file 0;
#X obj 441 29 adc~, f 19;
#X obj 152 497 *~;
#X obj 150 695 dac~;
#X obj 41 80 tgl 15 0 empty empty empty 17 7 0 10 -262144 -1 -1 1 1
;
#X obj 169 475 r master;
#X obj 605 300 r del_buffer;
#X msg 605 326 \; Buffer const 0;
#X obj 607 222 r stop_audio;
#X msg 607 246 \; pd dsp 0;
#X obj 610 53 openpanel;
#X msg 610 77 read -resize \$1 Buffer;
#X obj 610 104 soundfiler;
#X floatatom 609 134 5 0 0 0 - - -;
#X obj 610 24 bng 15 250 50 0 empty empty empty 17 7 0 10 -262144 -1
-1;
#X obj 151 534 clip~ -1 1;
#X obj 41 100 metro 1000;
#X obj 59 78 r play_head;
#X obj 151 609 random_panning;
#X obj 41 124 s grain_bang;
#X obj 214 558 r grain_bang;
#X obj 245 588 r amount;
#N canvas 952 0 958 966 record_to_buffer 0;
#X msg 276 359 start;
#X msg 409 351 stop;
#X obj 244 57 r rec_bang;
#X obj 377 120 r rec_bang;
#X obj 228 422 tabwrite~ Buffer;
#X obj 377 158 delay 1000;
#X obj 448 20 r buffer_len;
#X obj 302 176 bng 15 250 50 0 empty empty empty 17 7 0 10 -262144
-1 -1;
#X obj 36 48 inlet~;
#X obj 85 47 inlet~;
#X obj 604 268 s REC;
#X obj 447 46 int;
#X obj 552 238 spigot;
#X obj 591 164 r live;
#X obj 328 55 r rec_bang;
#X obj 328 106 delay;
#X obj 169 293 vline~;
#X obj 151 355 *~;
#X obj 244 90 t b b;
#X obj 447 70 - 10;
#X msg 169 232 1 10;
#X msg 328 234 0 10;
#X obj 377 182 t b b;
#X connect 0 0 4 0;
#X connect 1 0 4 0;
#X connect 2 0 18 0;
#X connect 3 0 5 0;
#X connect 5 0 22 0;
#X connect 6 0 11 0;
#X connect 8 0 17 0;
#X connect 9 0 17 0;
#X connect 11 0 19 0;
#X connect 11 0 5 1;
#X connect 12 0 10 0;
#X connect 13 0 12 1;
#X connect 13 0 10 0;
#X connect 14 0 15 0;
#X connect 15 0 21 0;
#X connect 16 0 17 1;
#X connect 17 0 4 0;
#X connect 18 0 20 0;
#X connect 18 1 7 0;
#X connect 18 1 0 0;
#X connect 19 0 15 1;
#X connect 20 0 16 0;
#X connect 21 0 16 0;
#X connect 22 0 12 0;
#X connect 22 1 1 0;
#X restore 440 57 pd record_to_buffer;
#X obj 40 52 loadbang;
#N canvas 588 347 958 966 move_through_buffer 0;
#X obj 157 191 phasor~;
#X obj 156 410 *~;
#X obj 157 464 snapshot~;
#X obj 307 173 * 44.1;
#X obj 149 114 /;
#X floatatom 157 166 5 0 0 0 - - -;
#X obj 149 61 t b f;
#X msg 142 90 1000;
#X obj 157 601 +;
#X obj 189 511 random;
#X obj 157 486 t f b;
#X obj 157 625 mod, f 22;
#X obj 230 489 * 44.1;
#X obj 338 476 snapshot~;
#X obj 336 420 loadbang;
#X obj 401 425 bng 15 250 50 0 empty empty empty 17 7 0 10 -262144
-1 -1;
#X obj 342 548 s sample_count;
#X obj 157 649 outlet;
#X text 286 587 returns playhead position when to trigger a grain;
#X obj 62 46 inlet;
#X obj 149 18 inlet;
#X obj 231 22 inlet;
#X text 20 22 grain bang;
#X text 135 -3 buffer length;
#X text 246 2 jitter;
#X obj 328 23 inlet;
#X text 324 -1 reverse playback;
#X obj 116 305 abs~;
#X obj 116 281 -~ 1;
#X floatatom 468 541 5 0 0 0 - - -;
#X obj 338 444 metro 100;
#X obj 468 517 / 44100;
#X obj 451 7 inlet;
#X text 529 -2 playback_speed;
#X obj 157 143 *;
#X obj 451 31 t b f;
#X obj 527 38 r fixed_position;
#X obj 340 517 spigot, f 15;
#X obj 22 548 spigot;
#X obj 23 459 r playhead_pos;
#X obj 36 482 r fixed_position;
#X obj 131 541 spigot;
#X obj 63 525 tgl 15 0 empty empty empty 17 7 0 10 -262144 -1 -1 0
1;
#X obj 107 540 tgl 15 0 empty empty empty 17 7 0 10 -262144 -1 -1 1
1;
#X obj 191 535 t b f;
#X floatatom 314 142 5 0 0 0 - - -;
#X obj 533 99 t b b;
#X obj 503 244 tgl 15 0 empty empty empty 17 7 0 10 -262144 -1 -1 1
1;
#X obj 116 335 audio_switch;
#X obj 534 72 == 0;
#X obj 110 510 == 0;
#X obj 459 194 loadbang;
#X obj 197 286 loadbang;
#X connect 0 0 48 1;
#X connect 0 0 28 0;
#X connect 1 0 2 0;
#X connect 1 0 13 0;
#X connect 2 0 10 0;
#X connect 3 0 1 1;
#X connect 3 0 11 1;
#X connect 4 0 34 0;
#X connect 5 0 0 0;
#X connect 6 0 7 0;
#X connect 6 1 4 1;
#X connect 7 0 4 0;
#X connect 8 0 11 0;
#X connect 9 0 44 0;
#X connect 10 0 41 0;
#X connect 10 1 9 0;
#X connect 11 0 17 0;
#X connect 12 0 9 1;
#X connect 13 0 31 0;
#X connect 13 0 37 0;
#X connect 14 0 30 0;
#X connect 15 0 30 0;
#X connect 19 0 2 0;
#X connect 20 0 6 0;
#X connect 20 0 45 0;
#X connect 21 0 12 0;
#X connect 25 0 48 2;
#X connect 27 0 48 0;
#X connect 28 0 27 0;
#X connect 30 0 13 0;
#X connect 31 0 29 0;
#X connect 32 0 35 0;
#X connect 34 0 5 0;
#X connect 35 0 34 0;
#X connect 35 1 34 1;
#X connect 36 0 49 0;
#X connect 37 0 16 0;
#X connect 38 0 8 0;
#X connect 39 0 38 0;
#X connect 40 0 42 0;
#X connect 40 0 50 0;
#X connect 41 0 8 0;
#X connect 42 0 38 1;
#X connect 44 0 38 0;
#X connect 44 1 8 1;
#X connect 45 0 3 0;
#X connect 46 0 45 0;
#X connect 46 1 47 0;
#X connect 47 0 37 1;
#X connect 48 0 1 0;
#X connect 49 0 46 0;
#X connect 50 0 41 1;
#X connect 50 0 43 0;
#X connect 51 0 47 0;
#X connect 52 0 48 2;
#X restore 155 206 pd move_through_buffer;
#X obj 155 38 r grain_bang;
#X obj 205 65 r buffer_len;
#X obj 255 91 r jitter;
#X obj 268 114 r reverse_playback;
#X obj 507 456 r buffer_len;
#X msg 437 517 range 0 \$1;
#X obj 507 481 * 44.1;
#X obj 437 544 s resize_slide;
#X msg 552 517 \; Buffer resize \$1;
#X obj 552 555 print;
#X obj 154 360 clone grain 200;
#X obj 275 139 r playback_speed;
#X msg 8 215 1;
#X obj 8 192 r playback_reset;
#X floatatom 215 259 5 0 0 0 - - -;
#X obj 215 235 r g-dur;
#X floatatom 279 257 5 0 0 0 - - -;
#X obj 154 286 pack f f f, f 18;
#X msg 154 310 \$1 \$2 \$3;
#X msg 154 338 next \$1 \$2 \$3;
#X obj 8 281 r grain_pitch_reset;
#X msg 8 305 1;
#X obj 279 233 r grain_pitch;
#X obj 8 328 s GRAIN_PITCH;
#X obj 8 239 s PLAYBACK_SPEED;
#X obj 609 157 / 44.1;
#X obj 609 181 s BUFFER_LEN;
#X obj 52 654 throw~ L;
#X obj 258 666 throw~ R;
#X obj 153 452 *~;
#X obj 172 395 catch~ amp_envelope;
#X msg 9 390 0.5;
#X obj 9 366 r octave_down;
#X obj 9 413 s GRAIN_PITCH;
#X connect 0 0 21 0;
#X connect 0 1 21 1;
#X connect 1 0 14 0;
#X connect 3 0 15 0;
#X connect 4 0 1 1;
#X connect 5 0 6 0;
#X connect 7 0 8 0;
#X connect 9 0 10 0;
#X connect 10 0 11 0;
#X connect 11 0 12 0;
#X connect 12 0 49 0;
#X connect 13 0 9 0;
#X connect 14 0 17 0;
#X connect 14 0 17 1;
#X connect 15 0 18 0;
#X connect 16 0 15 1;
#X connect 17 0 2 0;
#X connect 17 0 51 0;
#X connect 17 1 2 1;
#X connect 17 1 52 0;
#X connect 19 0 17 2;
#X connect 20 0 17 3;
#X connect 22 0 3 0;
#X connect 23 0 41 0;
#X connect 24 0 23 0;
#X connect 25 0 23 1;
#X connect 26 0 23 2;
#X connect 27 0 23 3;
#X connect 28 0 30 0;
#X connect 29 0 31 0;
#X connect 30 0 29 0;
#X connect 30 0 32 0;
#X connect 32 0 33 0;
#X connect 34 0 53 0;
#X connect 35 0 23 4;
#X connect 36 0 48 0;
#X connect 37 0 36 0;
#X connect 38 0 41 1;
#X connect 39 0 38 0;
#X connect 40 0 41 2;
#X connect 41 0 42 0;
#X connect 42 0 43 0;
#X connect 43 0 34 0;
#X connect 44 0 45 0;
#X connect 45 0 47 0;
#X connect 46 0 40 0;
#X connect 49 0 50 0;
#X connect 53 0 1 0;
#X connect 54 0 53 1;
#X connect 55 0 57 0;
#X connect 56 0 55 0;
#X restore 486 428 pd main_file;
#X obj 89 688 tgl 30 0 live LIVE Live -30 -10 0 10 -30905 -1 -1 0 1
;
#X obj 178 685 tgl 30 0 reverse_playback REVERSE_PLAYBACK Reverse_Playback
-70 -10 0 10 -185203 -1 -1 0 1;
#X floatatom 213 505 5 0 25 0 freq_mod_frequency FREQ_MOD_FREQ freq_mod_freq
;
#X obj 282 37 r resize_slide;
#X floatatom 214 529 5 0 90 0 freq_mod_amount FREQ_MOD_AMOUNT freq_mod_amount
;
#X text 1074 554 feq mod amount also shift up the pitch -> mean changes
;
#X floatatom 214 559 5 0.1 3 0 playback_speed playback_speed -;
#X text 1179 430 unterschiedliche Fensterfunktionen evtl. über weight/mittelwert
regeln;
#X text 1234 385 random intervallänge;
#X text 1199 506 adding extra hslide for jitter;
#X obj 128 294 hsl 128 15 0.1 3 0 0 playback_speed PLAYBACK_SPEED playback_speed
-2 -8 0 10 -262144 -1 -1 3941 1;
#X obj 275 629 bng 30 250 50 0 playback_reset PLAYBACK_RESET playback_speed_reset
-70 -10 0 10 -4034 -1 -1;
#X obj 369 627 bng 30 250 50 0 grain_pitch_reset GRAIN_PITCH_RESET
grain_pitch_reset -70 -20 0 10 -4032 -1 -1;
#N canvas -9 -9 1920 976 save 0;
#X obj 365 135 inlet;
#X msg 362 248 start;
#X msg 428 245 stop;
#X obj 194 135 catch~ L;
#X obj 261 136 catch~ R;
#X obj 361 215 sel 1;
#X obj 429 221 sel 0;
#X obj 228 306 writesf~ 2;
#X connect 0 0 5 0;
#X connect 0 0 6 0;
#X connect 0 0 7 0;
#X connect 1 0 7 0;
#X connect 2 0 7 0;
#X connect 3 0 7 0;
#X connect 4 0 7 1;
#X connect 5 0 1 0;
#X connect 6 0 2 0;
#X restore 609 488 pd save sound;
#X obj 620 429 tgl 50 0 save SAVE Save 0 -10 0 10 -260097 -1 -1 0 1
;
#X msg 609 393 open granular_sounds.wav;
#X obj 368 687 tgl 30 0 fixed_position FIXED_POSITION Fixed_position
-50 -10 0 10 -257985 -1 -1 0 1;
#X obj -129 -731 cnv 15 100 60 empty empty empty 20 12 0 14 -233017
-66577 0;
#X obj 487 687 tgl 30 0 use_keyboard USE_KEYBOARD use_midi_keyboard
-50 -10 0 10 -182419 -1 -1 1 1;
#X floatatom 585 680 5 1 200 0 Attack ATTACK attack;
#X floatatom 586 723 5 200 1000 0 Sustain SUSTAIN sustain;
#X floatatom 586 748 5 1000 1500 0 Relase RELEASE release;
#X floatatom 585 701 5 0 500 0 Decay DECAY decay;
#X obj 487 628 bng 30 250 50 0 octave_down OCTAVE_DOWN octave_down
-50 -10 0 10 -204800 -1 -1;
#X connect 22 0 14 0;
#X connect 33 0 32 0;
#X connect 34 0 32 0;
#X coords 0 0 2 1 0 0 0;
