#N canvas -9 -9 1920 976 12;
#X obj 71 82 bng 50 250 50 0 rec_bang REC RECORD 0 -5 0 10 -257985
-1 -1;
#N canvas 0 50 1187 700 (subpatch) 0;
#X array Buffer 194800 float 4;
#X coords 0 1 194799 -1 500 300 1 0 0;
#X restore 293 73 graph;
#X obj 134 83 bng 50 250 50 0 stop_audio STOP_AUDIO STOP_AUDIO 0 -5
0 10 -258113 -1 -1;
#X obj 125 163 hsl 128 15 0 1 0 0 master MASTER master -2 -8 0 10 -262144
-1 -1 11200 1;
#X floatatom 215 358 5 40 500 0 grain-duration G-DUR g-dur;
#X floatatom 216 378 5 0.1 2 0 grain-speed g-speed -;
#X obj 126 199 hsl 128 15 10 20000 0 0 buffer_len BUFFER_LEN buffer_length
-2 -8 0 10 -262144 -1 -1 2847 1;
#X floatatom 216 333 10 0 0 0 buffer_len buffer_len -;
#X obj 204 85 bng 50 250 50 0 del_buffer DEL_BUFFER DELETE_BUFFER 0
-5 0 10 -4034 -1 -1;
#X floatatom 215 401 5 0 10000 0 jitter jitter -;
#X floatatom 213 427 5 0 500 0 playhead_speed_interval PLAY_HEAD play_head
;
#X obj 126 261 hsl 128 15 0.1 3 0 0 g-speed GRAIN_SPEED grain_speed
-2 -8 0 10 -262144 -1 -1 0 1;
#X obj 126 230 hsl 128 15 0 5000 0 0 jitter JITTER jitter -2 -8 0 10
-262144 -1 -1 1200 1;
#X floatatom 212 451 5 0 1 0 panning_amount AMOUNT amount;
#X obj 296 73 hsl 500 300 0 194800 0 0 empty sample_count empty -2
-8 0 10 -262144 -1 -1 47529 1;
#X floatatom 213 482 5 1 4 0 random_octave RANDOM_OCTAVE random_octave
;
#X obj 274 614 tgl 30 0 reverse_grain REVERSE_GRAIN Reverse_Grain -50
-10 0 10 -52451 -1 -1 0 1;
#N canvas 952 0 958 966 midi_settings 0;
#X obj 691 317 s REC;
#X obj 682 62 s MASTER;
#X obj 135 131 ctlin 20;
#X obj 136 206 s GRAIN_SPEED;
#X text 57 18 MIDI & Default SETTINGS;
#X obj 654 190 s BUFFER_LEN;
#X obj 621 124 loadbang;
#X msg 621 148 10000;
#X obj 268 70 loadbang;
#X obj 274 192 s PLAY_HEAD;
#X msg 268 94 70;
#X obj 372 40 loadbang;
#X obj 423 102 s G-DUR;
#X msg 372 64 100;
#X obj 62 497 loadbang;
#X msg 62 521 1;
#X obj 62 595 s RANDOM_OCTAVE;
#X obj 691 238 notein;
#X obj 691 264 stripnote;
#X obj 682 38 / 127;
#X obj 682 14 ctlin 62;
#X obj 684 101 ctlin 16;
#X obj 686 126 / 127;
#X obj 686 150 * 15000;
#X obj 691 288 sel 1;
#X obj 589 237 notein;
#X obj 589 263 stripnote;
#X obj 589 287 sel 27;
#X obj 589 316 s STOP_AUDIO;
#X obj 593 351 notein;
#X obj 593 377 stripnote;
#X obj 593 430 s DEL_BUFFER;
#X obj 593 401 sel 4;
#X obj 489 239 notein;
#X obj 489 265 stripnote;
#X obj 490 321 s LIVE;
#X obj 489 289 sel 3;
#X obj 370 353 s REVERSE_PLAYBACK;
#X obj 370 268 notein;
#X obj 370 294 stripnote;
#X obj 370 318 sel 6;
#X obj 511 392 notein;
#X obj 511 418 stripnote;
#X obj 511 442 sel 9;
#X obj 511 477 s REVERSE_GRAIN;
#X obj 443 34 / 127;
#X obj 443 58 * 500;
#X obj 135 155 / 127;
#X obj 135 179 * 3;
#X obj 337 106 ctlin 17;
#X obj 337 130 / 127;
#X obj 337 154 * 300;
#X obj 126 493 / 127;
#X obj 126 517 * 4;
#X obj 126 541 int;
#X obj 128 467 ctlin 18;
#X obj 528 15 ctlin 22;
#X obj 528 39 / 127;
#X obj 528 63 * 3000;
#X obj 528 87 s JITTER;
#X obj 441 9 ctlin 21;
#X obj 823 47 / 127;
#X obj 966 47 / 127;
#X obj 966 23 ctlin 59;
#X obj 966 71 * 5;
#X obj 815 184 / 127;
#X obj 815 208 s AMOUNT;
#X obj 966 99 s FREQ_MOD_FREQ;
#X obj 823 99 s FREQ_MOD_AMOUNT;
#X obj 823 23 ctlin 58;
#X obj 815 160 ctlin 60;
#X obj 823 71 * 25;
#X obj 816 313 / 127;
#X obj 816 337 * 3;
#X obj 816 289 ctlin 55;
#X obj 816 361 + 0.05;
#X obj 819 397 s PLAYBACK_SPEED;
#X connect 2 0 47 0;
#X connect 6 0 7 0;
#X connect 7 0 5 0;
#X connect 8 0 10 0;
#X connect 10 0 9 0;
#X connect 11 0 13 0;
#X connect 13 0 12 0;
#X connect 14 0 15 0;
#X connect 15 0 16 0;
#X connect 17 0 18 0;
#X connect 17 1 18 1;
#X connect 18 0 24 0;
#X connect 19 0 1 0;
#X connect 20 0 19 0;
#X connect 21 0 22 0;
#X connect 22 0 23 0;
#X connect 23 0 5 0;
#X connect 24 0 0 0;
#X connect 25 0 26 0;
#X connect 25 1 26 1;
#X connect 26 0 27 0;
#X connect 27 0 28 0;
#X connect 29 0 30 0;
#X connect 29 1 30 1;
#X connect 30 0 32 0;
#X connect 32 0 31 0;
#X connect 33 0 34 0;
#X connect 33 1 34 1;
#X connect 34 0 36 0;
#X connect 36 0 35 0;
#X connect 38 0 39 0;
#X connect 38 1 39 1;
#X connect 39 0 40 0;
#X connect 40 0 37 0;
#X connect 41 0 42 0;
#X connect 41 1 42 1;
#X connect 42 0 43 0;
#X connect 43 0 44 0;
#X connect 45 0 46 0;
#X connect 46 0 12 0;
#X connect 47 0 48 0;
#X connect 48 0 3 0;
#X connect 49 0 50 0;
#X connect 50 0 51 0;
#X connect 51 0 9 0;
#X connect 52 0 53 0;
#X connect 53 0 54 0;
#X connect 54 0 16 0;
#X connect 55 0 52 0;
#X connect 56 0 57 0;
#X connect 57 0 58 0;
#X connect 58 0 59 0;
#X connect 60 0 45 0;
#X connect 61 0 71 0;
#X connect 62 0 64 0;
#X connect 63 0 62 0;
#X connect 64 0 67 0;
#X connect 65 0 66 0;
#X connect 69 0 61 0;
#X connect 70 0 65 0;
#X connect 71 0 68 0;
#X connect 72 0 73 0;
#X connect 73 0 75 0;
#X connect 74 0 72 0;
#X connect 75 0 76 0;
#X restore 358 426 pd midi_settings;
#N canvas 952 0 958 966 main_file 0;
#X obj 441 29 adc~, f 19;
#X obj 154 402 *~;
#X obj 155 545 dac~;
#X obj 41 80 tgl 15 0 empty empty empty 17 7 0 10 -262144 -1 -1 1 1
;
#X obj 171 380 r master;
#X obj 605 300 r del_buffer;
#X msg 605 326 \; Buffer const 0;
#X obj 607 222 r stop_audio;
#X msg 607 246 \; pd dsp 0;
#X obj 610 53 openpanel;
#X msg 610 77 read -resize \$1 Buffer;
#X obj 610 104 soundfiler;
#X floatatom 609 134 5 0 0 0 - - -;
#X obj 609 157 expr 44100 / $f1;
#X obj 610 24 bng 15 250 50 0 empty empty empty 17 7 0 10 -262144 -1
-1;
#X obj 156 434 clip~ -1 1;
#X obj 41 100 metro 1000;
#X obj 59 78 r play_head;
#X obj 155 509 random_panning;
#X obj 41 124 s grain_bang;
#X obj 218 458 r grain_bang;
#X obj 249 488 r amount;
#N canvas 952 0 958 966 record_to_buffer 0;
#X msg 276 359 start;
#X msg 409 351 stop;
#X obj 244 57 r rec_bang;
#X obj 377 120 r rec_bang;
#X obj 228 422 tabwrite~ Buffer;
#X obj 377 158 delay 1000;
#X obj 448 20 r buffer_len;
#X obj 302 176 bng 15 250 50 0 empty empty empty 17 7 0 10 -262144
-1 -1;
#X obj 36 48 inlet~;
#X obj 85 47 inlet~;
#X obj 604 268 s REC;
#X obj 447 46 int;
#X obj 552 238 spigot;
#X obj 591 164 r live;
#X obj 328 55 r rec_bang;
#X obj 328 106 delay;
#X obj 169 293 vline~;
#X obj 151 355 *~;
#X obj 244 90 t b b;
#X obj 447 70 - 10;
#X msg 169 232 1 10;
#X msg 328 234 0 10;
#X obj 377 182 t b b;
#X connect 0 0 4 0;
#X connect 1 0 4 0;
#X connect 2 0 18 0;
#X connect 3 0 5 0;
#X connect 5 0 22 0;
#X connect 6 0 11 0;
#X connect 8 0 17 0;
#X connect 9 0 17 0;
#X connect 11 0 19 0;
#X connect 11 0 5 1;
#X connect 12 0 10 0;
#X connect 13 0 12 1;
#X connect 13 0 10 0;
#X connect 14 0 15 0;
#X connect 15 0 21 0;
#X connect 16 0 17 1;
#X connect 17 0 4 0;
#X connect 18 0 20 0;
#X connect 18 1 7 0;
#X connect 18 1 0 0;
#X connect 19 0 15 1;
#X connect 20 0 16 0;
#X connect 21 0 16 0;
#X connect 22 0 12 0;
#X connect 22 1 1 0;
#X restore 440 57 pd record_to_buffer;
#X obj 40 52 loadbang;
#N canvas 952 0 958 966 move_through_buffer 0;
#X obj 157 191 phasor~;
#X obj 155 337 *~;
#X obj 156 391 snapshot~;
#X obj 307 173 * 44.1;
#X obj 149 114 /;
#X floatatom 157 166 5 0 0 0 - - -;
#X obj 149 61 t b f;
#X msg 142 90 1000;
#X obj 155 464 +;
#X obj 188 438 random;
#X obj 156 413 t f b;
#X obj 155 488 mod, f 22;
#X obj 229 416 * 44.1;
#X obj 337 403 snapshot~;
#X obj 335 347 loadbang;
#X obj 400 352 bng 15 250 50 0 empty empty empty 17 7 0 10 -262144
-1 -1;
#X obj 323 448 s sample_count;
#X obj 155 512 outlet;
#X text 285 514 returns playhead position when to trigger a grain;
#X obj 62 46 inlet;
#X obj 149 18 inlet;
#X obj 231 22 inlet;
#X text 20 22 grain bang;
#X text 135 -3 buffer length;
#X text 246 2 jitter;
#X obj 328 23 inlet;
#X text 324 -1 reverse playback;
#X obj 97 270 abs~;
#X obj 97 246 -~ 1;
#X obj 156 249 *~;
#X obj 97 212 *~;
#X obj 115 179 tgl 15 0 empty empty empty 17 7 0 10 -262144 -1 -1 1
1;
#X obj 200 248 tgl 15 0 empty empty empty 17 7 0 10 -262144 -1 -1 0
1;
#X obj 174 224 == 0;
#X floatatom 467 468 5 0 0 0 - - -;
#X obj 337 371 metro 100;
#X obj 467 444 / 44100;
#X obj 451 7 inlet;
#X text 529 -2 playback_speed;
#X obj 157 143 *;
#X obj 28 135 loadbang;
#X obj 451 31 t b f;
#X connect 0 0 29 0;
#X connect 0 0 30 0;
#X connect 1 0 2 0;
#X connect 1 0 13 0;
#X connect 2 0 10 0;
#X connect 3 0 1 1;
#X connect 3 0 11 1;
#X connect 4 0 39 0;
#X connect 5 0 0 0;
#X connect 6 0 7 0;
#X connect 6 1 4 1;
#X connect 7 0 4 0;
#X connect 8 0 11 0;
#X connect 9 0 8 1;
#X connect 10 0 8 0;
#X connect 10 1 9 0;
#X connect 11 0 17 0;
#X connect 12 0 9 1;
#X connect 13 0 16 0;
#X connect 13 0 36 0;
#X connect 14 0 35 0;
#X connect 15 0 35 0;
#X connect 19 0 2 0;
#X connect 20 0 6 0;
#X connect 20 0 3 0;
#X connect 21 0 12 0;
#X connect 25 0 31 0;
#X connect 25 0 33 0;
#X connect 27 0 1 0;
#X connect 28 0 27 0;
#X connect 29 0 1 0;
#X connect 30 0 28 0;
#X connect 31 0 30 1;
#X connect 33 0 29 1;
#X connect 33 0 32 0;
#X connect 35 0 13 0;
#X connect 36 0 34 0;
#X connect 37 0 41 0;
#X connect 39 0 5 0;
#X connect 40 0 31 0;
#X connect 41 0 39 0;
#X connect 41 1 39 1;
#X restore 155 206 pd move_through_buffer;
#X obj 155 38 r grain_bang;
#X obj 205 65 r buffer_len;
#X obj 255 91 r jitter;
#X obj 268 114 r reverse_playback;
#X obj 507 456 r buffer_len;
#X msg 437 517 range 0 \$1;
#X obj 507 481 * 44.1;
#X obj 437 544 s resize_slide;
#X msg 552 517 \; Buffer resize \$1;
#X obj 552 555 print;
#X obj 154 360 clone grain 200;
#X obj 275 139 r playback_speed;
#X msg 8 215 1;
#X obj 8 192 r playback_reset;
#X obj 8 239 s playback_speed;
#X floatatom 207 261 5 0 0 0 - - -;
#X obj 154 286 pack f f;
#X msg 154 310 \$1 \$2;
#X msg 154 338 next \$1 \$2;
#X obj 207 237 r g-dur;
#X connect 0 0 22 0;
#X connect 0 1 22 1;
#X connect 1 0 15 0;
#X connect 3 0 16 0;
#X connect 4 0 1 1;
#X connect 5 0 6 0;
#X connect 7 0 8 0;
#X connect 9 0 10 0;
#X connect 10 0 11 0;
#X connect 11 0 12 0;
#X connect 12 0 13 0;
#X connect 14 0 9 0;
#X connect 15 0 18 0;
#X connect 15 0 18 1;
#X connect 16 0 19 0;
#X connect 17 0 16 1;
#X connect 18 0 2 0;
#X connect 18 1 2 1;
#X connect 20 0 18 2;
#X connect 21 0 18 3;
#X connect 23 0 3 0;
#X connect 24 0 41 0;
#X connect 25 0 24 0;
#X connect 26 0 24 1;
#X connect 27 0 24 2;
#X connect 28 0 24 3;
#X connect 29 0 31 0;
#X connect 30 0 32 0;
#X connect 31 0 30 0;
#X connect 31 0 33 0;
#X connect 33 0 34 0;
#X connect 35 0 1 0;
#X connect 36 0 24 4;
#X connect 37 0 39 0;
#X connect 38 0 37 0;
#X connect 40 0 41 1;
#X connect 41 0 42 0;
#X connect 42 0 43 0;
#X connect 43 0 35 0;
#X connect 44 0 40 0;
#X restore 486 428 pd main_file;
#X obj 85 617 tgl 30 0 live LIVE Live -30 -10 0 10 -30905 -1 -1 0 1
;
#X obj 174 614 tgl 30 0 reverse_playback REVERSE_PLAYBACK Reverse_Playback
-70 -10 0 10 -185203 -1 -1 1 1;
#X floatatom 213 505 5 0 25 0 freq_mod_frequency FREQ_MOD_FREQ freq_mod_freq
;
#X obj 282 37 r resize_slide;
#X floatatom 214 529 5 0 20 0 freq_mod_amount FREQ_MOD_AMOUNT freq_mod_amount
;
#X text 315 687 feq mod amount also shift up the pitch -> mean changes
;
#X floatatom 214 559 5 0.1 3 0 playback_speed playback_speed -;
#X text 899 556 unterschiedliche Fensterfunktionen evtl. über weight/mittelwert
regeln;
#X text 965 510 Grain-speed wieder einfüjhren;
#X text 979 455 random intervallänge;
#X text 919 632 adding extra hslide for jitter;
#X obj 128 294 hsl 128 15 0.1 3 0 0 playback_speed PLAYBACK_SPEED playback_speed
-2 -8 0 10 -262144 -1 -1 8500 1;
#X obj 89 675 bng 30 250 50 0 playback_reset PLAYBACK_RESET playback_speed_reset
-70 -10 0 10 -4034 -1 -1;
#X text 514 581 playback head forward;
#X connect 22 0 14 0;
