#N canvas -190 30 1920 976 12;
#X obj 218 199 bng 50 250 50 0 rec_bang REC RECORD 0 -5 0 10 -257985
-1 -1;
#N canvas 0 50 1187 700 (subpatch) 0;
#X array Buffer 1 float 4;
#X coords 0 1 1 -1 500 200 1 0 0;
#X restore 451 206 graph;
#X obj 269 266 hsl 128 15 0 1 0 0 master MASTER master -2 -8 0 10 -262144
-1 -1 0 1;
#X floatatom 348 477 5 10 1000 0 grain-duration G-DUR g-dur;
#X floatatom 349 497 5 0.1 3 0 grain-pitch grain_pitch -;
#X obj 270 297 hsl 128 15 10 8000 0 0 buffer_len BUFFER_LEN buffer_length
-2 -8 0 10 -262144 -1 -1 6342 1;
#X floatatom 349 452 10 0 0 0 buffer_len buffer_len -;
#X obj 351 202 bng 50 250 50 0 del_buffer DEL_BUFFER DELETE_BUFFER
0 -5 0 10 -4034 -1 -1;
#X floatatom 348 520 5 0 10000 0 jitter jitter -;
#X floatatom 346 546 5 0 20000 0 playhead_speed_interval PLAY_HEAD
play_head;
#X obj 270 359 hsl 128 15 0.1 3 0 0 grain_pitch GRAIN_PITCH grain_pitch
-2 -8 0 10 -262144 -1 -1 3941 1;
#X obj 269 328 hsl 128 15 0 3000 0 0 jitter JITTER jitter -2 -8 0 10
-262144 -1 -1 0 1;
#X floatatom 345 570 5 0 1 0 panning_amount AMOUNT amount;
#X obj 452 206 hsl 500 200 0 0 0 0 playhead_pos sample_count empty
-2 -8 0 10 -262144 -1 -1 -2.14748e+009 1;
#X floatatom 346 601 5 1 4 0 random_octave RANDOM_OCTAVE random_octave
;
#X obj 703 614 tgl 30 0 reverse_grain REVERSE_GRAIN Reverse_Grain -50
-10 0 10 -52451 -1 -1 0 1;
#N canvas 442 5 1463 966 midi_settings 1;
#X obj 38 216 s REC;
#X obj 682 62 s MASTER;
#X text 57 18 MIDI & Default SETTINGS;
#X obj 1278 144 s BUFFER_LEN;
#X obj 1337 91 loadbang;
#X obj 944 473 loadbang;
#X msg 944 497 70;
#X obj 448 48 loadbang;
#X obj 395 105 s G-DUR;
#X msg 448 72 100;
#X obj 1039 345 loadbang;
#X msg 1039 369 1;
#X obj 1039 443 s RANDOM_OCTAVE;
#X obj 38 137 notein;
#X obj 38 163 stripnote;
#X obj 682 38 / 127;
#X obj 682 14 ctlin 62;
#X obj 1276 66 ctlin 16;
#X obj 1278 91 / 127;
#X obj 38 187 sel 1;
#X obj 667 393 notein;
#X obj 667 419 stripnote;
#X obj 667 472 s STOP_AUDIO;
#X obj 132 137 notein;
#X obj 132 163 stripnote;
#X obj 132 216 s DEL_BUFFER;
#X obj 132 187 sel 4;
#X obj 24 274 notein;
#X obj 24 300 stripnote;
#X obj 35 397 s LIVE;
#X obj 155 366 s REVERSE_PLAYBACK;
#X obj 148 281 notein;
#X obj 148 307 stripnote;
#X obj 148 331 sel 6;
#X obj 317 278 notein;
#X obj 317 304 stripnote;
#X obj 317 328 sel 9;
#X obj 318 370 s REVERSE_GRAIN;
#X obj 395 41 / 127;
#X obj 897 447 ctlin 17;
#X obj 897 471 / 127;
#X obj 1103 341 / 127;
#X obj 1103 365 * 4;
#X obj 1103 389 int;
#X obj 1105 315 ctlin 18;
#X obj 528 15 ctlin 22;
#X obj 528 39 / 127;
#X obj 528 63 * 3000;
#X obj 528 87 s JITTER;
#X obj 393 16 ctlin 21;
#X obj 823 47 / 127;
#X obj 966 47 / 127;
#X obj 966 23 ctlin 59;
#X obj 966 71 * 5;
#X obj 815 184 / 127;
#X obj 815 213 s AMOUNT;
#X obj 966 99 s FREQ_MOD_FREQ;
#X obj 823 99 s FREQ_MOD_AMOUNT;
#X obj 823 23 ctlin 58;
#X obj 815 160 ctlin 60;
#X obj 816 313 / 127;
#X obj 816 337 * 3;
#X obj 816 289 ctlin 55;
#X obj 816 394 s PLAYBACK_SPEED;
#X obj 881 344 loadbang;
#X msg 881 368 1;
#X obj 1026 180 / 127;
#X obj 1026 204 * 3;
#X obj 1091 211 loadbang;
#X msg 1091 235 1;
#X obj 1026 261 s GRAIN_PITCH;
#X obj 1026 156 ctlin 20;
#X obj 253 248 s PLAYBACK_RESET;
#X obj 254 165 notein;
#X obj 254 191 stripnote;
#X obj 254 215 sel 7;
#X obj 384 165 notein;
#X obj 384 191 stripnote;
#X obj 383 248 s GRAIN_PITCH_RESET;
#X obj 879 160 loadbang;
#X msg 879 184 0;
#X obj 891 38 loadbang;
#X msg 891 62 0;
#X obj 439 281 notein;
#X obj 439 307 stripnote;
#X obj 444 362 s FIXED_POSITION;
#X obj 439 331 sel 12;
#X obj 685 560 notein;
#X obj 685 586 stripnote;
#X obj 707 814 s SAVE;
#X obj 823 71 * 50;
#X obj 685 610 sel 26;
#X obj 443 557 / 127;
#X obj 443 589 + 0.05;
#X obj 508 572 loadbang;
#X msg 508 596 1;
#X obj 443 622 s BIT_DEPTH;
#X obj 443 533 ctlin 54;
#X obj 684 639 bng 15 250 50 0 empty empty empty 17 7 0 10 -262144
-1 -1;
#X obj 684 687 + 1;
#X obj 684 713 mod 3;
#X floatatom 684 735 5 0 0 0 - - -;
#X obj 728 691 f;
#X obj 684 758 sel 0 1 2;
#X obj 684 788 bng 15 250 50 0 empty empty empty 17 7 0 10 -262144
-1 -1;
#X obj 706 788 bng 15 250 50 0 empty empty empty 17 7 0 10 -262144
-1 -1;
#X obj 725 790 bng 15 250 50 0 empty empty empty 17 7 0 10 -262144
-1 -1;
#X obj 684 837 s FILENAME;
#X obj 598 626 loadbang;
#X msg 682 660 1;
#X msg 622 665 2;
#X obj 384 215 sel 10;
#X obj 542 168 notein;
#X obj 542 194 stripnote;
#X obj 542 218 sel 13;
#X obj 541 251 s OCTAVE_DOWN;
#X obj 161 588 / 127;
#X obj 226 565 loadbang;
#X msg 226 589 0;
#X obj 161 564 ctlin 46;
#X obj 161 615 s FEEDBACK;
#X obj 1075 587 loadbang;
#X obj 1028 585 / 127;
#X obj 1028 609 * 300;
#X msg 1075 611 0;
#X obj 1028 561 ctlin 24;
#X obj 897 527 s PLAY_HEAD;
#X obj 1028 640 s PLAYHEAD_RAND;
#X obj 816 361 + 0.0625;
#X obj 1026 228 + 0.0625;
#X obj 897 495 * 800;
#X obj 1104 49 / 127;
#X obj 1172 40 loadbang;
#X msg 1172 64 0;
#X obj 1104 73 * 100;
#X obj 1104 101 s RAND_DETUNE;
#X obj 656 167 notein;
#X obj 656 193 stripnote;
#X obj 655 250 s OCTAVE_UP;
#X obj 656 217 sel 16;
#X obj 395 72 * 1000;
#X obj 312 555 / 127;
#X obj 377 532 loadbang;
#X obj 312 531 ctlin 50;
#X obj 312 619 s OCTAVE_GROUPS;
#X msg 377 556 1;
#X obj 312 580 * 50;
#X obj 57 719 s BIT_VOLUME;
#X obj 59 670 loadbang;
#X msg 60 695 1;
#X obj 608 283 notein;
#X obj 608 364 s MUTE;
#X text 646 308 latch;
#X obj 1104 25 ctlin 26;
#X msg 1337 115 4000;
#X obj 1278 115 * 8000;
#X obj 608 333 sel 15;
#X obj 24 365 sel 3;
#N canvas 906 302 692 587 send 0;
#X obj 41 317 noteout 0;
#X obj 57 26 tgl 15 0 empty empty empty 17 7 0 10 -262144 -1 -1 0 1
;
#X obj 57 46 sel 1;
#X obj 54 77 bng 15 250 50 0 empty empty empty 17 7 0 10 -262144 -1
-1;
#X obj 95 112 bng 15 250 50 0 empty empty empty 17 7 0 10 -262144 -1
-1;
#X msg 54 97 127;
#X msg 95 132 0;
#X obj 48 165 t b a;
#X obj 56 5 inlet;
#X obj 41 274 f;
#X msg 127 232 3;
#X obj 126 206 loadbang;
#X connect 1 0 2 0;
#X connect 2 0 3 0;
#X connect 2 1 4 0;
#X connect 3 0 5 0;
#X connect 4 0 6 0;
#X connect 5 0 7 0;
#X connect 6 0 7 0;
#X connect 7 0 9 0;
#X connect 7 1 0 1;
#X connect 8 0 1 0;
#X connect 9 0 0 0;
#X connect 10 0 9 0;
#X connect 11 0 10 0;
#X restore 23 428 pd send light3;
#N canvas 906 302 692 587 send 0;
#X obj 41 317 noteout 0;
#X obj 57 26 tgl 15 0 empty empty empty 17 7 0 10 -262144 -1 -1 0 1
;
#X obj 57 46 sel 1;
#X obj 54 77 bng 15 250 50 0 empty empty empty 17 7 0 10 -262144 -1
-1;
#X obj 95 112 bng 15 250 50 0 empty empty empty 17 7 0 10 -262144 -1
-1;
#X msg 54 97 127;
#X msg 95 132 0;
#X obj 48 165 t b a;
#X obj 56 5 inlet;
#X obj 41 274 f;
#X obj 126 206 loadbang;
#X msg 127 232 6;
#X connect 1 0 2 0;
#X connect 2 0 3 0;
#X connect 2 1 4 0;
#X connect 3 0 5 0;
#X connect 4 0 6 0;
#X connect 5 0 7 0;
#X connect 6 0 7 0;
#X connect 7 0 9 0;
#X connect 7 1 0 1;
#X connect 8 0 1 0;
#X connect 9 0 0 0;
#X connect 10 0 11 0;
#X connect 11 0 9 0;
#X restore 148 410 pd send light6;
#N canvas 906 302 692 587 send 0;
#X obj 41 317 noteout 0;
#X obj 57 26 tgl 15 0 empty empty empty 17 7 0 10 -262144 -1 -1 0 1
;
#X obj 57 46 sel 1;
#X obj 54 77 bng 15 250 50 0 empty empty empty 17 7 0 10 -262144 -1
-1;
#X obj 95 112 bng 15 250 50 0 empty empty empty 17 7 0 10 -262144 -1
-1;
#X msg 54 97 127;
#X msg 95 132 0;
#X obj 48 165 t b a;
#X obj 56 5 inlet;
#X obj 41 274 f;
#X obj 126 206 loadbang;
#X msg 127 232 9;
#X connect 1 0 2 0;
#X connect 2 0 3 0;
#X connect 2 1 4 0;
#X connect 3 0 5 0;
#X connect 4 0 6 0;
#X connect 5 0 7 0;
#X connect 6 0 7 0;
#X connect 7 0 9 0;
#X connect 7 1 0 1;
#X connect 8 0 1 0;
#X connect 9 0 0 0;
#X connect 10 0 11 0;
#X connect 11 0 9 0;
#X restore 309 407 pd send light9;
#N canvas 906 302 692 587 send 0;
#X obj 41 317 noteout 0;
#X obj 57 26 tgl 15 0 empty empty empty 17 7 0 10 -262144 -1 -1 0 1
;
#X obj 57 46 sel 1;
#X obj 54 77 bng 15 250 50 0 empty empty empty 17 7 0 10 -262144 -1
-1;
#X obj 95 112 bng 15 250 50 0 empty empty empty 17 7 0 10 -262144 -1
-1;
#X msg 54 97 127;
#X msg 95 132 0;
#X obj 48 165 t b a;
#X obj 56 5 inlet;
#X obj 41 274 f;
#X obj 126 206 loadbang;
#X msg 127 232 12;
#X connect 1 0 2 0;
#X connect 2 0 3 0;
#X connect 2 1 4 0;
#X connect 3 0 5 0;
#X connect 4 0 6 0;
#X connect 5 0 7 0;
#X connect 6 0 7 0;
#X connect 7 0 9 0;
#X connect 7 1 0 1;
#X connect 8 0 1 0;
#X connect 9 0 0 0;
#X connect 10 0 11 0;
#X connect 11 0 9 0;
#X restore 438 404 pd send light12;
#X obj 667 443 sel 25;
#N canvas 906 302 692 587 send 0;
#X obj 41 317 noteout 0;
#X obj 57 26 tgl 15 0 empty empty empty 17 7 0 10 -262144 -1 -1 0 1
;
#X obj 57 46 sel 1;
#X obj 54 77 bng 15 250 50 0 empty empty empty 17 7 0 10 -262144 -1
-1;
#X obj 95 112 bng 15 250 50 0 empty empty empty 17 7 0 10 -262144 -1
-1;
#X msg 54 97 127;
#X msg 95 132 0;
#X obj 48 165 t b a;
#X obj 56 5 inlet;
#X obj 41 274 f;
#X obj 126 206 loadbang;
#X msg 127 233 25;
#X connect 1 0 2 0;
#X connect 2 0 3 0;
#X connect 2 1 4 0;
#X connect 3 0 5 0;
#X connect 4 0 6 0;
#X connect 5 0 7 0;
#X connect 6 0 7 0;
#X connect 7 0 9 0;
#X connect 7 1 0 1;
#X connect 8 0 1 0;
#X connect 9 0 0 0;
#X connect 10 0 11 0;
#X connect 11 0 9 0;
#X restore 655 502 pd send light25;
#N canvas 1237 446 692 587 send 1;
#X obj 41 317 noteout 0;
#X obj 57 26 tgl 15 0 empty empty empty 17 7 0 10 -262144 -1 -1 0 1
;
#X obj 57 46 sel 1;
#X obj 54 77 bng 15 250 50 0 empty empty empty 17 7 0 10 -262144 -1
-1;
#X obj 95 112 bng 15 250 50 0 empty empty empty 17 7 0 10 -262144 -1
-1;
#X msg 54 97 127;
#X msg 95 132 0;
#X obj 48 165 t b a;
#X obj 56 5 inlet;
#X obj 41 274 f;
#X obj 126 206 loadbang;
#X msg 127 233 26;
#X connect 1 0 2 0;
#X connect 2 0 3 0;
#X connect 2 1 4 0;
#X connect 3 0 5 0;
#X connect 4 0 6 0;
#X connect 5 0 7 0;
#X connect 6 0 7 0;
#X connect 7 0 9 0;
#X connect 7 1 0 1;
#X connect 8 0 1 0;
#X connect 9 0 0 0;
#X connect 10 0 11 0;
#X connect 11 0 9 0;
#X restore 766 654 pd send light26;
#X connect 4 0 154 0;
#X connect 5 0 6 0;
#X connect 6 0 126 0;
#X connect 7 0 9 0;
#X connect 9 0 8 0;
#X connect 10 0 11 0;
#X connect 11 0 12 0;
#X connect 13 0 14 0;
#X connect 13 1 14 1;
#X connect 14 0 19 0;
#X connect 15 0 1 0;
#X connect 16 0 15 0;
#X connect 17 0 18 0;
#X connect 18 0 155 0;
#X connect 19 0 0 0;
#X connect 20 0 21 0;
#X connect 20 1 21 1;
#X connect 21 0 162 0;
#X connect 23 0 24 0;
#X connect 23 1 24 1;
#X connect 24 0 26 0;
#X connect 26 0 25 0;
#X connect 27 0 28 0;
#X connect 27 1 28 1;
#X connect 28 0 157 0;
#X connect 31 0 32 0;
#X connect 31 1 32 1;
#X connect 32 0 33 0;
#X connect 33 0 30 0;
#X connect 33 0 159 0;
#X connect 34 0 35 0;
#X connect 34 1 35 1;
#X connect 35 0 36 0;
#X connect 36 0 37 0;
#X connect 36 0 160 0;
#X connect 38 0 140 0;
#X connect 39 0 40 0;
#X connect 40 0 130 0;
#X connect 41 0 42 0;
#X connect 42 0 43 0;
#X connect 43 0 12 0;
#X connect 44 0 41 0;
#X connect 45 0 46 0;
#X connect 46 0 47 0;
#X connect 47 0 48 0;
#X connect 49 0 38 0;
#X connect 50 0 90 0;
#X connect 51 0 53 0;
#X connect 52 0 51 0;
#X connect 53 0 56 0;
#X connect 54 0 55 0;
#X connect 58 0 50 0;
#X connect 59 0 54 0;
#X connect 60 0 61 0;
#X connect 61 0 128 0;
#X connect 62 0 60 0;
#X connect 64 0 65 0;
#X connect 65 0 63 0;
#X connect 66 0 67 0;
#X connect 67 0 129 0;
#X connect 68 0 69 0;
#X connect 69 0 70 0;
#X connect 71 0 66 0;
#X connect 73 0 74 0;
#X connect 73 1 74 1;
#X connect 74 0 75 0;
#X connect 75 0 72 0;
#X connect 76 0 77 0;
#X connect 76 1 77 1;
#X connect 77 0 111 0;
#X connect 79 0 80 0;
#X connect 80 0 55 0;
#X connect 81 0 82 0;
#X connect 82 0 57 0;
#X connect 83 0 84 0;
#X connect 83 1 84 1;
#X connect 84 0 86 0;
#X connect 86 0 85 0;
#X connect 86 0 161 0;
#X connect 87 0 88 0;
#X connect 87 1 88 1;
#X connect 88 0 91 0;
#X connect 90 0 57 0;
#X connect 91 0 98 0;
#X connect 91 0 164 0;
#X connect 92 0 93 0;
#X connect 93 0 96 0;
#X connect 94 0 95 0;
#X connect 95 0 96 0;
#X connect 97 0 92 0;
#X connect 98 0 109 0;
#X connect 99 0 100 0;
#X connect 99 0 102 0;
#X connect 100 0 101 0;
#X connect 101 0 103 0;
#X connect 102 0 99 1;
#X connect 103 0 104 0;
#X connect 103 1 105 0;
#X connect 103 2 106 0;
#X connect 104 0 107 0;
#X connect 105 0 89 0;
#X connect 106 0 89 0;
#X connect 108 0 110 0;
#X connect 109 0 99 0;
#X connect 110 0 99 0;
#X connect 111 0 78 0;
#X connect 112 0 113 0;
#X connect 112 1 113 1;
#X connect 113 0 114 0;
#X connect 114 0 115 0;
#X connect 116 0 120 0;
#X connect 117 0 118 0;
#X connect 118 0 120 0;
#X connect 119 0 116 0;
#X connect 121 0 124 0;
#X connect 122 0 123 0;
#X connect 123 0 127 0;
#X connect 124 0 127 0;
#X connect 125 0 122 0;
#X connect 128 0 63 0;
#X connect 129 0 70 0;
#X connect 130 0 126 0;
#X connect 131 0 134 0;
#X connect 132 0 133 0;
#X connect 133 0 135 0;
#X connect 134 0 135 0;
#X connect 136 0 137 0;
#X connect 136 1 137 1;
#X connect 137 0 139 0;
#X connect 139 0 138 0;
#X connect 140 0 8 0;
#X connect 141 0 146 0;
#X connect 142 0 145 0;
#X connect 143 0 141 0;
#X connect 145 0 144 0;
#X connect 146 0 144 0;
#X connect 148 0 149 0;
#X connect 149 0 147 0;
#X connect 150 0 156 0;
#X connect 153 0 131 0;
#X connect 154 0 3 0;
#X connect 155 0 3 0;
#X connect 156 0 151 0;
#X connect 157 0 29 0;
#X connect 157 0 158 0;
#X connect 162 0 22 0;
#X connect 162 0 163 0;
#X restore 1121 368 pd midi_settings;
#N canvas 952 0 958 966 main_file 1;
#X obj 441 29 adc~, f 19;
#X obj 196 687 *~;
#X obj 195 921 dac~, f 15;
#X obj 19 147 tgl 15 0 empty empty empty 17 7 0 10 -262144 -1 -1 1
1;
#X obj 364 646 r master;
#X obj 705 300 r del_buffer;
#X msg 705 326 \; Buffer const 0;
#X obj 707 217 r stop_audio;
#X obj 710 53 openpanel;
#X msg 710 77 read -resize \$1 Buffer;
#X obj 710 104 soundfiler;
#X floatatom 709 134 5 0 0 0 - - -;
#X obj 710 24 bng 15 250 50 0 empty empty empty 17 7 0 10 -262144 -1
-1;
#X obj 195 724 clip~ -1 1;
#X obj 19 167 metro 1000;
#X obj 85 46 r play_head;
#X obj 19 191 s grain_bang;
#N canvas 952 0 958 966 record_to_buffer 1;
#X msg 276 359 start;
#X msg 409 351 stop;
#X obj 244 57 r rec_bang;
#X obj 377 120 r rec_bang;
#X obj 150 886 tabwrite~ Buffer;
#X obj 377 158 delay 1000;
#X obj 448 20 r buffer_len;
#X obj 302 176 bng 15 250 50 0 empty empty empty 17 7 0 10 -262144
-1 -1;
#X obj 36 48 inlet~;
#X obj 85 47 inlet~;
#X obj 604 268 s REC;
#X obj 447 46 int;
#X obj 552 238 spigot;
#X obj 591 164 r live;
#X obj 328 55 r rec_bang;
#X obj 328 106 delay;
#X obj 169 293 vline~;
#X obj 151 355 *~;
#X obj 244 90 t b b;
#X obj 447 70 - 10;
#X msg 169 232 1 10;
#X msg 328 234 0 10;
#X obj 377 182 t b b;
#X obj 273 750 *~;
#X obj 291 700 r feedback;
#X floatatom 291 725 5 0 1 0 - - -;
#X obj 276 459 t b;
#X obj 272 667 tabread4~ Buffer;
#X obj 417 453 r buffer_len;
#X obj 364 629 line~;
#X obj 364 572 pack f f;
#X msg 364 599 0 \, \$1 \$2;
#X obj 417 482 v;
#X obj 151 811 clip~ -1 1;
#X obj 382 516 r samplerate_divided;
#X obj 364 544 *;
#X connect 0 0 4 0;
#X connect 0 0 26 0;
#X connect 1 0 4 0;
#X connect 2 0 18 0;
#X connect 3 0 5 0;
#X connect 5 0 22 0;
#X connect 6 0 11 0;
#X connect 8 0 17 0;
#X connect 9 0 17 0;
#X connect 11 0 19 0;
#X connect 11 0 5 1;
#X connect 12 0 10 0;
#X connect 13 0 12 1;
#X connect 13 0 10 0;
#X connect 14 0 15 0;
#X connect 15 0 21 0;
#X connect 16 0 17 1;
#X connect 17 0 33 0;
#X connect 18 0 20 0;
#X connect 18 1 7 0;
#X connect 18 1 0 0;
#X connect 19 0 15 1;
#X connect 20 0 16 0;
#X connect 21 0 16 0;
#X connect 22 0 12 0;
#X connect 22 1 1 0;
#X connect 23 0 33 0;
#X connect 24 0 25 0;
#X connect 25 0 23 1;
#X connect 26 0 32 0;
#X connect 27 0 23 0;
#X connect 28 0 32 0;
#X connect 29 0 27 0;
#X connect 30 0 31 0;
#X connect 31 0 29 0;
#X connect 32 0 30 1;
#X connect 32 0 35 0;
#X connect 33 0 4 0;
#X connect 34 0 35 1;
#X connect 35 0 30 0;
#X restore 440 57 pd record_to_buffer;
#X obj 19 117 loadbang;
#N canvas 952 0 958 966 move_through_buffer 0;
#X obj 157 191 phasor~;
#X obj 156 410 *~;
#X obj 157 464 snapshot~;
#X obj 149 114 /;
#X floatatom 157 166 5 0 0 0 - - -;
#X obj 149 61 t b f;
#X msg 142 90 1000;
#X obj 156 679 +;
#X obj 189 511 random;
#X obj 157 486 t f b;
#X obj 156 703 mod, f 22;
#X obj 338 476 snapshot~;
#X obj 336 420 loadbang;
#X obj 401 425 bng 15 250 50 0 empty empty empty 17 7 0 10 -262144
-1 -1;
#X obj 342 548 s sample_count;
#X obj 156 727 outlet;
#X text 286 587 returns playhead position when to trigger a grain;
#X obj 62 46 inlet;
#X obj 149 18 inlet;
#X obj 231 22 inlet;
#X text 20 22 grain bang;
#X text 135 -3 buffer length;
#X text 246 2 jitter;
#X obj 328 23 inlet;
#X text 324 -1 reverse playback;
#X obj 116 305 abs~;
#X obj 116 281 -~ 1;
#X floatatom 468 541 5 0 0 0 - - -;
#X obj 338 444 metro 100;
#X obj 451 7 inlet;
#X text 529 -2 playback_speed;
#X obj 157 143 *;
#X obj 451 31 t b f;
#X obj 527 38 r fixed_position;
#X obj 340 517 spigot, f 15;
#X obj 23 578 spigot;
#X obj 23 459 r playhead_pos;
#X obj 36 482 r fixed_position;
#X obj 114 609 spigot;
#X obj 63 525 tgl 15 0 empty empty empty 17 7 0 10 -262144 -1 -1 0
1;
#X obj 95 550 tgl 15 0 empty empty empty 17 7 0 10 -262144 -1 -1 0
1;
#X obj 189 535 t b f;
#X floatatom 307 141 5 0 0 0 - - -;
#X obj 533 99 t b b;
#X obj 503 244 tgl 15 0 empty empty empty 17 7 0 10 -262144 -1 -1 1
1;
#X obj 116 335 audio_switch;
#X obj 534 72 == 0;
#X obj 95 516 == 0;
#X obj 459 194 loadbang;
#X obj 153 563 loadbang;
#X obj 153 586 tgl 15 0 empty empty empty 17 7 0 10 -262144 -1 -1 1
1;
#X obj 248 381 r samplerate_divided;
#X obj 230 489 *;
#X obj 346 144 r samplerate_divided;
#X obj 307 173 *;
#X obj 486 486 samplerate~;
#X obj 486 463 loadbang;
#X obj 468 517 /;
#X connect 0 0 26 0;
#X connect 0 0 45 1;
#X connect 1 0 2 0;
#X connect 1 0 11 0;
#X connect 2 0 9 0;
#X connect 3 0 31 0;
#X connect 4 0 0 0;
#X connect 5 0 6 0;
#X connect 5 1 3 1;
#X connect 6 0 3 0;
#X connect 7 0 10 0;
#X connect 8 0 41 0;
#X connect 9 0 38 0;
#X connect 9 1 8 0;
#X connect 10 0 15 0;
#X connect 11 0 34 0;
#X connect 11 0 57 0;
#X connect 12 0 28 0;
#X connect 13 0 28 0;
#X connect 17 0 2 0;
#X connect 18 0 5 0;
#X connect 18 0 42 0;
#X connect 19 0 52 0;
#X connect 23 0 45 2;
#X connect 25 0 45 0;
#X connect 26 0 25 0;
#X connect 28 0 11 0;
#X connect 29 0 32 0;
#X connect 31 0 4 0;
#X connect 32 0 31 0;
#X connect 32 1 31 1;
#X connect 33 0 46 0;
#X connect 34 0 14 0;
#X connect 35 0 7 0;
#X connect 36 0 35 0;
#X connect 37 0 39 0;
#X connect 37 0 47 0;
#X connect 38 0 7 0;
#X connect 39 0 35 1;
#X connect 41 0 35 0;
#X connect 41 1 7 1;
#X connect 42 0 54 0;
#X connect 43 0 42 0;
#X connect 43 1 44 0;
#X connect 44 0 34 1;
#X connect 45 0 1 0;
#X connect 46 0 43 0;
#X connect 47 0 38 1;
#X connect 47 0 40 0;
#X connect 48 0 44 0;
#X connect 49 0 50 0;
#X connect 50 0 38 1;
#X connect 51 0 52 1;
#X connect 52 0 8 1;
#X connect 53 0 54 1;
#X connect 54 0 1 1;
#X connect 54 0 10 1;
#X connect 55 0 57 1;
#X connect 56 0 55 0;
#X connect 57 0 27 0;
#X restore 196 299 pd move_through_buffer;
#X obj 196 169 r grain_bang;
#X obj 233 193 r buffer_len;
#X obj 271 218 r jitter;
#X obj 309 242 r reverse_playback;
#X obj 707 383 r buffer_len;
#X msg 637 444 range 0 \$1;
#X obj 637 471 s resize_slide;
#X msg 752 444 \; Buffer resize \$1;
#X obj 752 482 print;
#X obj 347 265 r playback_speed;
#X msg 20 357 1;
#X obj 20 334 r playback_reset;
#X floatatom 258 362 5 0 0 0 - - -;
#X obj 258 338 r g-dur;
#X floatatom 351 374 5 0 0 0 - - -;
#X obj 197 548 pack f f f, f 18;
#X msg 197 572 \$1 \$2 \$3;
#X msg 197 611 next \$1 \$2 \$3;
#X obj 20 423 r grain_pitch_reset;
#X msg 20 447 1;
#X obj 350 351 r grain_pitch;
#X obj 20 470 s GRAIN_PITCH;
#X obj 20 381 s PLAYBACK_SPEED;
#X obj 709 181 s BUFFER_LEN;
#X obj 128 771 throw~ L;
#X obj 313 773 throw~ R;
#X msg 21 532 0.5;
#X obj 21 508 r octave_down;
#X obj 21 595 s GRAIN_PITCH;
#X obj 299 692 *~;
#X obj 299 724 clip~ -1 1;
#X obj 212 21 r playhead_rand;
#X obj 173 47 random;
#X obj 173 0 r grain_bang;
#X obj 86 112 +;
#X obj 173 71 t b f;
#X floatatom 86 142 5 0 0 0 - - -;
#X obj 422 730 adc~, f 19;
#X floatatom 248 64 5 0 0 0 - - -;
#N canvas -9 -9 1920 976 calculate 0;
#X obj 149 26 inlet;
#X obj 497 44 inlet;
#X obj 661 27 inlet;
#X text 194 25 grain-pitch;
#X text 543 44 random octave;
#X text 333 26 random detune;
#X obj 289 26 inlet;
#X floatatom 328 403 5 0 0 0 - - -;
#X floatatom 360 291 5 0 0 0 - - -;
#X obj 329 319 t b;
#X obj 328 378 pow, f 5;
#X obj 360 265 random;
#X obj 367 465 t b f;
#X obj 590 329 osc~;
#X obj 590 353 *~ 0.5;
#X obj 590 377 +~ 1;
#X obj 629 329 / 100;
#X obj 590 401 snapshot~;
#X obj 367 509 *;
#X obj 838 28 inlet;
#X text 702 18 LFO freq_mod_freq;
#X text 881 19 LFO freq_mod_amount;
#X obj 10 32 inlet;
#X text 8 7 playhead position;
#X obj 9 82 s comp_pitch;
#X obj 330 179 r comp_pitch;
#X obj 497 378 r comp_pitch;
#X obj 149 616 *;
#X obj 172 587 t b f;
#X obj 149 710 outlet;
#X obj 10 59 bng 15 250 50 0 empty empty empty 17 7 0 10 -262144 -1
-1;
#X obj 240 143 r comp_pitch;
#X obj 240 199 random;
#X obj 240 226 / 1000;
#X floatatom 221 357 5 0 0 0 - - -;
#X obj 222 334 + 1;
#X obj 131 435 *;
#X floatatom 167 223 5 0 0 0 - - -;
#X obj 167 198 random 2;
#X obj 167 246 sel 1;
#X msg 167 270 -1;
#X msg 198 270 1;
#X obj 222 308 *;
#N canvas 0 50 1915 882 counter 0;
#X obj 88 55 f;
#X obj 150 56 + 1;
#X floatatom 88 89 5 0 0 0 - - -;
#X msg 14 35 0;
#X floatatom 218 77 5 0 0 0 - - -;
#X obj 10 141 sel 1e+010;
#X obj 88 143 sel 0;
#X obj 88 14 inlet;
#X obj 218 14 inlet;
#X obj 88 117 mod;
#X text 272 9 octave groups;
#X text 129 13 comp_bang;
#X obj 88 187 outlet;
#X connect 0 0 1 0;
#X connect 0 0 2 0;
#X connect 1 0 0 1;
#X connect 2 0 5 0;
#X connect 2 0 9 0;
#X connect 3 0 0 0;
#X connect 4 0 9 1;
#X connect 5 0 3 0;
#X connect 6 0 12 0;
#X connect 7 0 0 0;
#X connect 8 0 4 0;
#X connect 9 0 6 0;
#X restore 330 219 pd counter;
#X obj 441 8 inlet;
#X text 483 2 octave groups;
#X msg 328 349 2;
#X connect 0 0 36 1;
#X connect 1 0 11 1;
#X connect 2 0 13 0;
#X connect 6 0 32 1;
#X connect 7 0 18 0;
#X connect 8 0 9 0;
#X connect 8 0 10 1;
#X connect 9 0 46 0;
#X connect 10 0 7 0;
#X connect 11 0 8 0;
#X connect 12 0 18 0;
#X connect 12 1 18 1;
#X connect 13 0 14 0;
#X connect 14 0 15 0;
#X connect 15 0 17 0;
#X connect 16 0 14 1;
#X connect 17 0 12 0;
#X connect 18 0 28 0;
#X connect 19 0 16 0;
#X connect 22 0 30 0;
#X connect 25 0 43 0;
#X connect 26 0 17 0;
#X connect 27 0 29 0;
#X connect 28 0 27 0;
#X connect 28 1 27 1;
#X connect 30 0 24 0;
#X connect 31 0 32 0;
#X connect 31 0 38 0;
#X connect 32 0 33 0;
#X connect 33 0 42 1;
#X connect 34 0 36 0;
#X connect 35 0 34 0;
#X connect 36 0 27 0;
#X connect 37 0 39 0;
#X connect 38 0 37 0;
#X connect 39 0 40 0;
#X connect 39 1 41 0;
#X connect 40 0 42 0;
#X connect 41 0 42 0;
#X connect 42 0 35 0;
#X connect 43 0 11 0;
#X connect 44 0 43 1;
#X connect 46 0 10 0;
#X restore 320 517 pd calculate effective pitch;
#X obj 448 439 r random_octave;
#X obj 481 463 r freq_mod_freq;
#X obj 491 485 r freq_mod_amount;
#X obj 384 395 r rand_detune;
#X obj 73 533 r grain_pitch;
#X obj 21 565 *;
#X obj 22 709 s GRAIN_PITCH;
#X obj 74 647 r grain_pitch;
#X obj 22 679 *;
#X obj 22 622 r octave_up;
#X msg 22 646 2;
#X obj 416 416 r octave_groups;
#X obj 366 818 r mute;
#X obj 211 853 tgl 15 0 empty empty empty 17 7 0 10 -262144 -1 -1 1
1;
#X obj 195 877 *~;
#X obj 316 851 tgl 15 0 empty empty empty 17 7 0 10 -262144 -1 -1 1
1;
#X obj 298 875 *~;
#X obj 213 823 loadbang;
#X obj 706 604 loadbang;
#X obj 706 628 samplerate~;
#X obj 706 652 / 1000;
#X obj 706 677 s samplerate_divided;
#X obj 805 383 r samplerate_divided;
#X obj 707 408 *;
#X obj 750 132 r samplerate_divided;
#X obj 709 157 /;
#N canvas 0 0 450 300 (subpatch) 0;
#X array hanning 256 float 1;
#A 0 0 0.000150591 0.000602275 0.00135478 0.00240764 0.00376022 0.00541174
0.00736117 0.00960734 0.0121489 0.0149843 0.0181119 0.0215298 0.0252359
0.0292279 0.0335035 0.0380601 0.042895 0.0480052 0.0533877 0.0590392
0.0649563 0.0711355 0.077573 0.084265 0.0912073 0.0983959 0.105826
0.113494 0.121395 0.129524 0.137876 0.146446 0.155229 0.16422 0.173413
0.182803 0.192384 0.20215 0.212095 0.222214 0.2325 0.242948 0.25355
0.264301 0.275194 0.286222 0.297379 0.308658 0.320052 0.331555 0.343159
0.354857 0.366643 0.378509 0.390449 0.402454 0.414519 0.426634 0.438794
0.450991 0.463218 0.475466 0.487729 0.5 0.512271 0.524534 0.536782
0.549009 0.561205 0.573365 0.585481 0.597545 0.609551 0.62149 0.633357
0.645143 0.656841 0.668445 0.679948 0.691342 0.702621 0.713778 0.724806
0.735699 0.74645 0.757052 0.767499 0.777786 0.787905 0.79785 0.807616
0.817197 0.826587 0.83578 0.844771 0.853554 0.862124 0.870476 0.878605
0.886506 0.894174 0.901605 0.908793 0.915736 0.922428 0.928865 0.935044
0.940961 0.946613 0.951995 0.957106 0.96194 0.966497 0.970773 0.974765
0.978471 0.981889 0.985016 0.987852 0.990393 0.992639 0.994589 0.99624
0.997593 0.998645 0.999398 0.999849 1 0.999849 0.999398 0.998645 0.997592
0.996239 0.994588 0.992638 0.990392 0.987851 0.985015 0.981887 0.978469
0.974763 0.970771 0.966495 0.961939 0.957104 0.951993 0.946611 0.940959
0.935042 0.928863 0.922425 0.915733 1 0.901602 0.894171 0.886503 0.878602
0.870473 0.862121 0.853551 0.844768 0.835777 0.826584 0.817194 0.807613
0.797847 0.787901 0.777782 0.767496 0.757048 0.746446 0.735695 0.724802
0.713774 0.702617 0.691338 0.679944 0.668441 0.656837 0.645139 0.633353
0.621486 0.609547 0.597541 0.585477 0.573361 0.561201 0.549004 0.536778
0.52453 0.512266 0.499996 0.487725 0.475462 0.463213 0.450987 0.43879
0.42663 0.414515 0.40245 0.390445 0.378505 0.366639 0.354853 0.343155
0.331551 0.320048 0.308654 0.297375 0.286218 0.27519 0.264297 0.253547
0.242944 0.232497 0.222211 0.212092 0.202146 0.19238 0.182799 0.17341
0.164217 0.155226 0.146443 0.137873 0.129521 0.121392 0.113491 0.105823
0.0983929 0.0912044 0.0842621 0.0775702 0.0711328 0.0649537 0.0590367
0.0533853 0.0480029 0.0428928 0.038058 0.0335015 0.029226 0.025234
0.0215281 0.0181104 0.0149829 0.0121476 0.00960615 0.0073601 0.00541082
0.00375944 0.00240701 0.00135431 0.000601947 0.000150442;
#X coords 0 1 256 0 40 30 1;
#X restore 583 137 graph;
#X text 568 154 0;
#X text 568 131 1;
#X text 571 170 0;
#X text 607 170 256;
#X text 556 92 grain window;
#X msg 707 246 \; pd dsp \$1;
#X obj 197 640 clone grain 200;
#X connect 0 0 17 0;
#X connect 0 1 17 1;
#X connect 1 0 13 0;
#X connect 3 0 14 0;
#X connect 4 0 49 1;
#X connect 4 0 1 1;
#X connect 5 0 6 0;
#X connect 7 0 92 0;
#X connect 8 0 9 0;
#X connect 9 0 10 0;
#X connect 10 0 11 0;
#X connect 11 0 85 0;
#X connect 12 0 8 0;
#X connect 13 0 44 0;
#X connect 13 0 74 0;
#X connect 14 0 16 0;
#X connect 15 0 54 0;
#X connect 18 0 3 0;
#X connect 19 0 35 0;
#X connect 19 0 59 0;
#X connect 20 0 19 0;
#X connect 21 0 19 1;
#X connect 22 0 19 2;
#X connect 23 0 19 3;
#X connect 24 0 83 0;
#X connect 25 0 26 0;
#X connect 27 0 28 0;
#X connect 29 0 19 4;
#X connect 30 0 42 0;
#X connect 31 0 30 0;
#X connect 32 0 35 1;
#X connect 33 0 32 0;
#X connect 34 0 59 1;
#X connect 35 0 36 0;
#X connect 36 0 37 0;
#X connect 37 0 93 0;
#X connect 38 0 39 0;
#X connect 39 0 41 0;
#X connect 40 0 34 0;
#X connect 46 0 65 0;
#X connect 47 0 46 0;
#X connect 49 0 50 0;
#X connect 50 0 45 0;
#X connect 50 0 76 0;
#X connect 51 0 52 1;
#X connect 51 0 58 0;
#X connect 52 0 55 0;
#X connect 53 0 52 0;
#X connect 54 0 56 0;
#X connect 55 0 54 0;
#X connect 55 1 54 1;
#X connect 56 0 14 1;
#X connect 57 0 44 0;
#X connect 57 1 45 0;
#X connect 59 0 35 2;
#X connect 60 0 59 4;
#X connect 61 0 59 5;
#X connect 62 0 59 6;
#X connect 63 0 59 2;
#X connect 64 0 65 1;
#X connect 65 0 48 0;
#X connect 67 0 68 1;
#X connect 68 0 66 0;
#X connect 69 0 70 0;
#X connect 70 0 68 0;
#X connect 71 0 59 3;
#X connect 72 0 75 0;
#X connect 72 0 73 0;
#X connect 73 0 74 1;
#X connect 74 0 2 0;
#X connect 75 0 76 1;
#X connect 76 0 2 1;
#X connect 77 0 73 0;
#X connect 77 0 75 0;
#X connect 78 0 79 0;
#X connect 79 0 80 0;
#X connect 80 0 81 0;
#X connect 82 0 83 1;
#X connect 83 0 25 0;
#X connect 83 0 27 0;
#X connect 84 0 85 1;
#X connect 85 0 43 0;
#X connect 93 0 1 0;
#X connect 93 1 49 0;
#X restore 1119 393 pd main_file;
#X obj 514 617 tgl 30 0 live LIVE Live -30 -10 0 10 -30905 -1 -1 0
1;
#X obj 603 614 tgl 30 0 reverse_playback REVERSE_PLAYBACK Reverse_Playback
-70 -10 0 10 -185203 -1 -1 0 1;
#X floatatom 571 422 5 0 25 0 freq_mod_frequency FREQ_MOD_FREQ freq_mod_freq
;
#X obj 440 169 r resize_slide;
#X floatatom 572 446 5 0 90 0 freq_mod_amount FREQ_MOD_AMOUNT freq_mod_amount
;
#X floatatom 573 469 5 0.1 3 0 playback_speed playback_speed -;
#X text 1307 518 unterschiedliche Fensterfunktionen evtl. über weight/mittelwert
regeln;
#X obj 270 390 hsl 128 15 0.1 3 0 0 playback_speed PLAYBACK_SPEED playback_speed
-2 -8 0 10 -262144 -1 -1 3941 1;
#X obj 701 561 bng 30 250 50 0 playback_reset PLAYBACK_RESET playback_speed_reset
-70 -10 0 10 -4034 -1 -1;
#X obj 795 559 bng 30 250 50 0 grain_pitch_reset GRAIN_PITCH_RESET
grain_pitch_reset -70 -20 0 10 -4032 -1 -1;
#N canvas -9 -9 1920 976 save 0;
#X obj 365 135 inlet;
#X msg 362 248 start;
#X msg 428 245 stop;
#X obj 194 135 catch~ L;
#X obj 261 136 catch~ R;
#X obj 361 215 sel 1;
#X obj 429 221 sel 0;
#X obj 228 306 writesf~ 2;
#X connect 0 0 5 0;
#X connect 0 0 6 0;
#X connect 0 0 7 0;
#X connect 1 0 7 0;
#X connect 2 0 7 0;
#X connect 3 0 7 0;
#X connect 4 0 7 1;
#X connect 5 0 1 0;
#X connect 6 0 2 0;
#X restore 1115 324 pd save sound;
#X obj 1126 265 tgl 50 0 save SAVE Save 0 -10 0 10 -260097 -1 -1 0
1;
#X obj 793 616 tgl 30 0 fixed_position FIXED_POSITION Fixed_position
-50 -10 0 10 -257985 -1 -1 0 1;
#X obj 913 560 bng 30 250 50 0 octave_down OCTAVE_DOWN octave_down
-50 -10 0 10 -204800 -1 -1;
#X floatatom 938 437 5 0 8 0 - bit_depth -;
#X obj 803 439 hsl 128 15 0 1 0 0 bit_depth BIT_DEPTH bit_depth -2
-8 0 10 -262144 -1 -1 12700 1;
#X floatatom 938 471 5 0 1 0 - bit_volume -;
#X obj 803 472 hsl 128 15 0 1 0 0 bit_volume BIT_VOLUME bit_volume
-2 -8 0 10 -262144 -1 -1 12700 1;
#X obj 1116 203 r FILENAME;
#X msg 1115 229 open granular_sounds_3.wav;
#X obj 1367 195 tgl 40 0 empty empty Loop_Mode 17 7 0 10 -261682 -1
-1 0 1;
#X obj 1352 330 spigot;
#X obj 1352 292 r buffer_len;
#X obj 1348 379 s PLAY_HEAD;
#X obj 1380 357 s G-DUR;
#X obj 270 423 hsl 128 15 0 0.9 0 0 feedback FEEDBACK feedback_(only_if_live)
-2 -8 0 10 -262144 -1 -1 0 1;
#X floatatom 573 494 5 0 0.9 0 feedback feedback -;
#X floatatom 574 518 5 0 300 0 add_random_playhead PLAYHEAD_RAND playhead_rand
;
#X text 1283 659 Playhead Stutter -> needs corridor between 80hz and
5 hz?;
#X floatatom 575 543 5 0 300 0 random_detune RAND_DETUNE rand_detune
;
#X obj 1014 561 bng 30 250 50 0 octave_up OCTAVE_UP octave_up -50 -10
0 10 -108390 -1 -1;
#X floatatom 576 570 5 0 50 0 octave_groups OCTAVE_GROUPS octave_groups
;
#X obj 909 613 bng 30 250 50 0 mute MUTE mute -5 -10 0 10 -13381 -1
-1;
#X obj 278 200 tgl 50 0 stop_audio STOP_AUDIO AUDIO_ON/OFF -5 -5 0
10 -258113 -1 -1 0 1;
#X connect 21 0 13 0;
#X connect 29 0 28 0;
#X connect 36 0 37 0;
#X connect 37 0 28 0;
#X connect 38 0 39 1;
#X connect 39 0 41 0;
#X connect 39 0 42 0;
#X connect 40 0 39 0;
#X coords 0 0 3 1 0 0 0;
