#N canvas 952 0 958 966 12;
#X obj 169 90 inlet;
#X obj 322 92 inlet;
#X obj 472 93 inlet;
#X obj 611 93 inlet;
#X text 113 88 speed;
#X text 243 94 interval 1;
#X text 533 95 interval 3;
#X text 391 95 interval 2;
#X floatatom 263 380 5 0 0 0 - - -;
#X floatatom 318 379 5 0 0 0 - - -;
#X floatatom 373 378 5 0 0 0 - - -;
#X obj 136 215 metro;
#X obj 104 159 loadbang;
#X obj 105 186 tgl 15 0 empty empty empty 17 7 0 10 -262144 -1 -1 1
1;
#X obj 136 283 sel 1;
#X floatatom 178 172 5 0 0 0 - - -;
#X obj 136 327 bng 15 250 50 0 empty empty empty 17 7 0 10 -262144
-1 -1;
#X obj 168 326 bng 15 250 50 0 empty empty empty 17 7 0 10 -262144
-1 -1;
#X obj 136 247 random 2;
#X obj 732 250 inlet;
#X text 678 242 start note;
#X msg 136 382 1;
#X msg 168 357 -1;
#X obj 261 237 random 3;
#X obj 261 284 sel 0 1 2;
#X obj 261 321 bng 15 250 50 0 empty empty empty 17 7 0 10 -262144
-1 -1;
#X obj 281 314 bng 15 250 50 0 empty empty empty 17 7 0 10 -262144
-1 -1;
#X obj 301 313 bng 15 250 50 0 empty empty empty 17 7 0 10 -262144
-1 -1;
#X obj 261 262 hradio 15 1 0 3 empty empty empty 0 -8 0 10 -262144
-1 -1 2;
#X obj 300 578 +;
#X floatatom 318 524 5 0 0 0 - - -;
#X obj 300 498 *;
#X floatatom 300 633 5 0 0 0 - - -;
#X obj 300 807 outlet;
#X obj 358 577 f;
#X floatatom 327 698 5 0 0 0 - - -;
#X obj 327 674 <= 30;
#X obj 327 750 s reset;
#X obj 395 667 >= 110;
#X floatatom 395 691 5 0 0 0 - - -;
#X obj 327 721 sel 1;
#X obj 352 469 r reset;
#X connect 0 0 11 1;
#X connect 1 0 8 0;
#X connect 2 0 9 0;
#X connect 3 0 10 0;
#X connect 8 0 31 1;
#X connect 9 0 31 1;
#X connect 10 0 31 1;
#X connect 11 0 18 0;
#X connect 11 0 23 0;
#X connect 12 0 13 0;
#X connect 13 0 11 0;
#X connect 14 0 16 0;
#X connect 14 1 17 0;
#X connect 15 0 11 1;
#X connect 16 0 21 0;
#X connect 17 0 22 0;
#X connect 18 0 14 0;
#X connect 19 0 30 0;
#X connect 21 0 31 0;
#X connect 22 0 31 0;
#X connect 23 0 28 0;
#X connect 24 0 25 0;
#X connect 24 1 26 0;
#X connect 24 2 27 0;
#X connect 25 0 8 0;
#X connect 26 0 9 0;
#X connect 27 0 10 0;
#X connect 28 0 24 0;
#X connect 29 0 32 0;
#X connect 30 0 29 1;
#X connect 31 0 29 0;
#X connect 32 0 33 0;
#X connect 32 0 34 0;
#X connect 32 0 36 0;
#X connect 32 0 38 0;
#X connect 34 0 29 1;
#X connect 35 0 40 0;
#X connect 36 0 35 0;
#X connect 38 0 39 0;
#X connect 39 0 40 0;
#X connect 40 0 37 0;
#X connect 41 0 30 0;
