#N canvas -8 -8 1920 997 12;
#X obj 231 93 inlet;
#X obj 247 491 *~, f 4;
#X obj 230 164 random 100;
#X obj 228 346 / 100;
#X obj 184 394 -;
#X obj 161 495 *~;
#X obj 160 560 outlet~;
#X obj 114 96 inlet~;
#X obj 172 95 inlet~;
#X obj 238 564 outlet~;
#X text 239 66 bang;
#X obj 298 92 inlet;
#X obj 272 405 + 0.5;
#X msg 184 371 0.5;
#X text 301 47 amount ranging from 0 to 1;
#X obj 273 460 vline~;
#X msg 272 430 \$1 10;
#X obj 181 461 vline~;
#X msg 183 427 \$1 10;
#X obj 298 116 * 50;
#X floatatom 228 315 5 0 0 0 - - -;
#X floatatom 349 180 5 0 0 0 - - -;
#X obj 349 156 random 2;
#X obj 230 233 spigot;
#X obj 341 210 == 0;
#X obj 301 234 spigot;
#X obj 301 258 * -1;
#X connect 0 0 2 0;
#X connect 0 0 22 0;
#X connect 1 0 9 0;
#X connect 2 0 23 0;
#X connect 2 0 25 0;
#X connect 3 0 13 0;
#X connect 3 0 4 1;
#X connect 3 0 12 0;
#X connect 4 0 18 0;
#X connect 5 0 6 0;
#X connect 7 0 5 0;
#X connect 8 0 1 0;
#X connect 11 0 19 0;
#X connect 12 0 16 0;
#X connect 13 0 4 0;
#X connect 15 0 1 1;
#X connect 16 0 15 0;
#X connect 17 0 5 1;
#X connect 18 0 17 0;
#X connect 19 0 2 1;
#X connect 20 0 3 0;
#X connect 21 0 23 1;
#X connect 21 0 24 0;
#X connect 22 0 21 0;
#X connect 23 0 20 0;
#X connect 24 0 25 1;
#X connect 25 0 26 0;
#X connect 26 0 20 0;
