#N canvas -8 -8 1920 997 12;
#X obj 40 391 adc~;
#X msg 96 477 start;
#X msg 198 464 stop;
#X obj 559 68 tgl 15 0 empty empty empty 17 7 0 10 -262144 -1 -1 1
1;
#X floatatom 456 470 5 0 0 0 - - -;
#X obj 437 903 *~;
#X obj 294 1330 dac~;
#X msg 237 832 0;
#X obj 96 514 tabwrite~ audioData;
#X obj 438 1021 tabread4~ audioData;
#X floatatom 257 263 5 0 0 0 - - -;
#X obj 559 87 sel 1;
#X obj 257 239 random 200;
#X obj 270 671 bng 15 250 50 0 empty empty empty 17 7 0 10 -262144
-1 -1;
#X obj 287 752 /;
#X obj 295 307 + 10;
#X obj 948 76 bng 50 250 50 0 empty empty empty 17 7 0 10 -262144 -1
-1;
#X obj 551 548 metro 3;
#X msg 270 699 -1000;
#X obj 600 823 * 44.1;
#X obj 270 646 sel 1, f 9;
#X obj 330 676 bng 15 250 50 0 empty empty empty 17 7 0 10 -262144
-1 -1;
#X floatatom 746 572 5 0 0 0 - - -;
#X floatatom 778 460 5 0 0 0 - - -;
#X obj 747 488 t b;
#X obj 963 530 / 100;
#X obj 625 676 -;
#X floatatom 964 559 5 0 0 0 - - -;
#X msg 556 114 \; audioData const 0;
#X obj 493 739 /;
#X obj 1068 67 r Trigger @owl B1;
#X obj 1069 96 bng 50 250 50 0 empty empty empty 17 7 0 10 -258113
-1 -1;
#X msg 746 518 2;
#X obj 746 547 pow, f 5;
#X obj 282 856 phasor~;
#X obj 437 1121 *~;
#X obj 493 866 *;
#X text 1023 528 random detune;
#X floatatom 991 647 5 0 0 0 - - -;
#X text 1062 611 detune;
#X obj 551 517 t b f, f 7;
#X obj 878 715 +;
#X obj 534 490 tgl 15 0 empty empty empty 17 7 0 10 -262144 -1 -1 1
1;
#X msg 330 699 1000;
#X obj 444 428 *;
#X floatatom 461 353 5 0 0 0 - - -;
#X obj 434 386 t b;
#X floatatom 507 772 5 0 0 0 - - -;
#X msg 320 811 0;
#X obj 286 780 t f b;
#X obj 270 621 random 2, f 11;
#X obj 293 1271 *~;
#X obj 321 1272 *~;
#X msg 291 1187 1;
#X obj 323 1130 random 100;
#X obj 324 1154 / 100;
#X obj 291 1211 -;
#X obj 498 711 t b f;
#X msg 713 588 2;
#X obj 552 576 s grainbang;
#X obj 778 378 r grainbang;
#X obj 963 421 r grainbang;
#X obj 323 1104 r grainbang;
#X obj 248 585 r grainbang;
#X obj 1069 152 s rec_bang;
#X obj 559 42 r rec_bang;
#X obj 95 450 r rec_bang;
#X obj 161 401 r rec_bang;
#X obj 257 208 r rec_bang;
#X text 1124 34 record trigger;
#X text 802 486 random octave;
#X obj 948 148 s stop;
#X obj 237 808 r stop;
#X obj 534 467 r stop;
#X text 956 128 stop trigger;
#X obj 1611 734 s detune;
#X obj 994 617 r detune;
#X text 1685 675 detune;
#X obj 1663 439 s volume;
#X text 1794 350 volume;
#X obj 454 1161 r volume;
#X obj 1372 457 s grain_len;
#X obj 349 386 r grain_len;
#X text 1480 361 grain length;
#X obj 608 516 r update_len;
#X obj 507 795 s update_len;
#X obj 1374 433 hsl 128 15 0 1 0 0 empty empty empty -2 -8 0 10 -261234
-1 -1 12700 1;
#X obj 1614 706 hsl 128 15 -0.5 0.25 0 0 empty empty empty -2 -8 0
10 -2112 -1 -1 8467 1;
#X obj 1666 417 hsl 128 15 0 1 0 0 empty empty empty -2 -8 0 10 -159808
-1 -1 12700 1;
#X obj 1619 849 hsl 128 15 0 1 0 0 empty empty empty -2 -8 0 10 -2112
-1 -1 12700 1;
#X obj 1616 869 s buffer_len;
#X obj 339 258 r buffer_len;
#X obj 1347 604 s octave_amount;
#X floatatom 1348 576 5 0 0 0 - - -;
#X text 1456 541 random octave amount;
#X obj 1349 543 * 4;
#X obj 199 440 delay;
#X msg 1630 385 1;
#X obj 1630 363 loadbang;
#X msg 1333 402 1;
#X obj 1333 375 loadbang;
#X msg 1616 822 1;
#X obj 1616 795 loadbang;
#X text 1690 794 buffer length;
#X obj 747 634 * 440;
#X obj 1610 652 loadbang;
#X obj 1349 510 r octave_amount @owl A 0 1 0;
#X obj 1663 384 r volume @owl D 0 1 0.7;
#X obj 1368 401 r grain_len @owl C 0 1 1;
#X obj 606 1034 cos~;
#X obj 542 943 *~ 3.14159;
#X obj 607 976 /~;
#X obj 625 942 - 1;
#X obj 608 1005 -~ 1.5708;
#X obj 436 1185 *~;
#X obj 336 287 * 4000;
#X obj 778 434 random 3;
#X msg 1610 679 0;
#X obj 963 502 random 3;
#X connect 0 0 8 0;
#X connect 0 1 8 0;
#X connect 1 0 8 0;
#X connect 2 0 8 0;
#X connect 3 0 11 0;
#X connect 4 0 29 0;
#X connect 4 0 40 0;
#X connect 5 0 9 0;
#X connect 5 0 110 0;
#X connect 7 0 34 0;
#X connect 9 0 35 0;
#X connect 10 0 15 0;
#X connect 11 1 28 0;
#X connect 12 0 10 0;
#X connect 13 0 18 0;
#X connect 14 0 49 0;
#X connect 15 0 45 0;
#X connect 15 0 96 1;
#X connect 16 0 71 0;
#X connect 17 0 59 0;
#X connect 18 0 14 0;
#X connect 19 0 36 1;
#X connect 20 0 13 0;
#X connect 20 1 21 0;
#X connect 21 0 43 0;
#X connect 22 0 104 0;
#X connect 23 0 24 0;
#X connect 23 0 33 1;
#X connect 24 0 32 0;
#X connect 25 0 27 0;
#X connect 25 0 41 0;
#X connect 26 0 19 0;
#X connect 26 0 57 0;
#X connect 29 0 14 1;
#X connect 29 0 36 0;
#X connect 29 0 47 0;
#X connect 30 0 31 0;
#X connect 31 0 64 0;
#X connect 32 0 33 0;
#X connect 33 0 22 0;
#X connect 34 0 5 0;
#X connect 35 0 114 0;
#X connect 36 0 5 1;
#X connect 36 0 112 0;
#X connect 38 0 41 1;
#X connect 40 0 17 0;
#X connect 40 1 17 1;
#X connect 41 0 26 1;
#X connect 42 0 17 0;
#X connect 43 0 14 0;
#X connect 44 0 4 0;
#X connect 45 0 44 1;
#X connect 45 0 46 0;
#X connect 46 0 44 0;
#X connect 47 0 85 0;
#X connect 48 0 34 1;
#X connect 49 0 34 0;
#X connect 49 1 48 0;
#X connect 50 0 20 0;
#X connect 51 0 6 0;
#X connect 52 0 6 1;
#X connect 53 0 56 0;
#X connect 54 0 55 0;
#X connect 55 0 53 0;
#X connect 55 0 56 1;
#X connect 55 0 52 1;
#X connect 56 0 51 1;
#X connect 57 0 29 0;
#X connect 57 1 29 1;
#X connect 58 0 104 0;
#X connect 60 0 116 0;
#X connect 61 0 118 0;
#X connect 62 0 54 0;
#X connect 63 0 50 0;
#X connect 65 0 3 0;
#X connect 66 0 1 0;
#X connect 67 0 96 0;
#X connect 68 0 12 0;
#X connect 72 0 7 0;
#X connect 73 0 42 0;
#X connect 76 0 38 0;
#X connect 80 0 114 1;
#X connect 82 0 44 0;
#X connect 84 0 17 1;
#X connect 86 0 81 0;
#X connect 87 0 75 0;
#X connect 88 0 78 0;
#X connect 89 0 90 0;
#X connect 91 0 115 0;
#X connect 93 0 92 0;
#X connect 95 0 93 0;
#X connect 96 0 2 0;
#X connect 97 0 88 0;
#X connect 98 0 97 0;
#X connect 99 0 86 0;
#X connect 100 0 99 0;
#X connect 101 0 89 0;
#X connect 102 0 101 0;
#X connect 104 0 26 0;
#X connect 105 0 117 0;
#X connect 106 0 95 0;
#X connect 107 0 88 0;
#X connect 108 0 86 0;
#X connect 109 0 35 1;
#X connect 110 0 111 0;
#X connect 111 0 113 0;
#X connect 112 0 111 1;
#X connect 113 0 109 0;
#X connect 114 0 51 0;
#X connect 114 0 52 0;
#X connect 115 0 15 1;
#X connect 116 0 23 0;
#X connect 117 0 87 0;
#X connect 118 0 25 0;
