#N canvas 0 50 1042 798 12;
#X obj 296 27 inlet~;
#X obj 297 574 outlet~;
#X obj 297 338 expr~ round($v1 / $f2);
#X floatatom 429 295 5 0 0 0 - - -;
#X obj 298 394 *~;
#X obj 298 503 *~;
#X floatatom 601 437 5 0 1 0 - - -;
#X floatatom 431 184 5 0 0 0 - - -;
#X obj 434 127 hsl 128 15 2 16 0 0 empty empty empty -2 -8 0 10 -262144
-1 -1 6900 1;
#X obj 431 156 int;
#X obj 431 212 expr pow(2 \, $f1) - 1;
#X floatatom 429 238 5 0 0 0 - - -;
#X obj 429 269 expr 1 /$f1;
#X obj 661 334 r Channel-B;
#X obj 604 403 hsl 128 15 0 1 0 0 empty empty empty -2 -8 0 10 -262144
-1 -1 12600 1;
#X obj 430 27 inlet;
#X obj 600 25 inlet;
#X obj 431 99 + 2;
#X obj 430 74 * 14;
#X connect 0 0 2 0;
#X connect 2 0 4 0;
#X connect 3 0 2 1;
#X connect 3 0 4 1;
#X connect 4 0 5 0;
#X connect 5 0 1 0;
#X connect 6 0 5 1;
#X connect 7 0 10 0;
#X connect 8 0 9 0;
#X connect 9 0 7 0;
#X connect 10 0 11 0;
#X connect 11 0 12 0;
#X connect 12 0 3 0;
#X connect 13 0 14 0;
#X connect 14 0 6 0;
#X connect 15 0 18 0;
#X connect 16 0 14 0;
#X connect 17 0 8 0;
#X connect 18 0 17 0;
