#N canvas -8 -8 1920 997 12;
#X obj 105 202 adc~;
#X msg 199 247 start;
#X msg 269 263 stop;
#X obj 279 70 tgl 15 0 empty empty empty 17 7 0 10 -262144 -1 -1 0
1;
#X obj 436 74 bng 15 250 50 0 empty empty empty 17 7 0 10 -262144 -1
-1;
#X obj 468 79 bng 15 250 50 0 empty empty empty 17 7 0 10 -262144 -1
-1;
#X floatatom 453 298 5 0 0 0 - - -;
#X obj 304 569 *~;
#X obj 462 806 *~;
#X obj 104 993 dac~;
#N canvas 0 50 450 250 (subpatch) 0;
#X array audioData 100000 float 2;
#X coords 0 1 100000 -1 200 140 1 0 0;
#X restore 699 32 graph;
#X obj 516 811 hsl 128 15 0 1 0 0 empty empty empty -2 -8 0 10 -262144
-1 -1 0 1;
#X msg 304 485 0;
#X obj 154 295 tabwrite~ audioData;
#X obj 303 654 tabread4~ audioData;
#X obj 309 231 delay 100;
#X obj 435 36 t b b;
#X floatatom 454 139 5 0 0 0 - - -;
#X obj 271 97 sel 1;
#X obj 454 115 random 200;
#X obj 392 460 /;
#X obj 453 189 + 10;
#X obj 519 63 * 200;
#X obj 564 118 hsl 128 15 0 1 0 0 empty empty empty -2 -8 0 10 -262144
-1 -1 0 1;
#X obj 518 33 hsl 128 15 0 1 0 0 empty empty empty -2 -8 0 10 -262144
-1 -1 0 1;
#X obj 306 48 bng 15 250 50 0 empty empty empty 17 7 0 10 -262144 -1
-1;
#X obj 642 432 * 44.1;
#X msg 392 412 1000;
#X msg 150 147 \; audioData const 0;
#X obj 276 12 r Trigger @owl B1;
#X obj 561 89 r Length @owl C;
#X obj 516 1 r Randomlenghth @owl B;
#X obj 517 747 r FX Level @owl A;
#X obj 159 -7 notein;
#X obj 159 19 stripnote;
#X floatatom 159 44 3 0 0 0 - - -;
#X obj 304 529 phasor~;
#X obj 1376 730 line;
#X obj 1294 519 * 0.5;
#X floatatom 1291 560 5 0 0 0 - - -;
#X obj 1295 470 metro;
#X obj 1317 417 tgl 15 0 empty empty empty 17 7 0 10 -262144 -1 -1
0 1;
#X obj 1409 618 delay;
#X obj 1348 249 float;
#X obj 1419 251 +;
#X floatatom 1347 286 5 0 0 0 - - -;
#X obj 1347 181 bng 15 250 50 0 empty empty empty 17 7 0 10 -262144
-1 -1;
#X floatatom 1438 193 5 0 0 0 - - -;
#X obj 1352 333 sel 2;
#X obj 1362 375 bng 15 250 50 0 empty empty empty 17 7 0 10 -262144
-1 -1;
#X msg 1319 659 1 \$1;
#X obj 1409 592 t b f;
#X msg 1395 199 0;
#X obj 1389 652 expr x;
#X msg 1399 691 0 \$1;
#X obj 1319 603 v x, f 5;
#X obj 677 257 mtof;
#X floatatom 682 309 5 0 0 0 - - -;
#X obj 682 332 / 440;
#X obj 682 356 * 44.1;
#X obj 680 184 notein;
#X obj 680 208 stripnote;
#X floatatom 679 233 3 0 0 0 - - -;
#X obj 642 363 t b;
#X obj 461 854 *~;
#X obj 392 348 t b f;
#X obj 480 651 expr~ sin((3.141592653598979323846 * $v1)/($i2 -1))
;
#X text 479 627 cosine Window;
#X obj 48 1033 expr~ (2/$i2)*($i2/2- abs($v1-($i2 -1)/2));
#X obj 561 143 * 1000;
#X obj 462 924 bitcru;
#X obj 484 883 hsl 128 15 0 1 0 0 empty empty empty -2 -8 0 10 -262144
-1 -1 0 1;
#X obj 504 902 hsl 128 15 0 1 0 0 empty empty empty -2 -8 0 10 -262144
-1 -1 0 1;
#X connect 0 0 13 0;
#X connect 0 0 9 0;
#X connect 0 1 9 1;
#X connect 0 1 13 0;
#X connect 1 0 13 0;
#X connect 2 0 13 0;
#X connect 3 0 18 0;
#X connect 4 0 1 0;
#X connect 5 0 15 0;
#X connect 5 0 19 0;
#X connect 6 0 26 0;
#X connect 6 0 65 0;
#X connect 7 0 14 0;
#X connect 7 0 66 0;
#X connect 8 0 64 0;
#X connect 11 0 64 1;
#X connect 12 0 36 0;
#X connect 14 0 8 0;
#X connect 15 0 2 0;
#X connect 16 0 4 0;
#X connect 16 1 5 0;
#X connect 17 0 21 0;
#X connect 18 1 28 0;
#X connect 19 0 17 0;
#X connect 20 0 36 0;
#X connect 21 0 15 1;
#X connect 21 0 6 0;
#X connect 22 0 19 1;
#X connect 23 0 69 0;
#X connect 24 0 22 0;
#X connect 25 0 3 0;
#X connect 25 0 16 0;
#X connect 26 0 7 1;
#X connect 26 0 66 1;
#X connect 27 0 20 0;
#X connect 29 0 25 0;
#X connect 30 0 23 0;
#X connect 31 0 24 0;
#X connect 32 0 11 0;
#X connect 33 0 34 0;
#X connect 33 1 34 1;
#X connect 34 0 35 0;
#X connect 35 0 25 0;
#X connect 36 0 7 0;
#X connect 38 0 39 0;
#X connect 39 0 50 0;
#X connect 39 0 51 0;
#X connect 39 0 55 0;
#X connect 40 0 38 0;
#X connect 41 0 40 0;
#X connect 42 0 53 0;
#X connect 43 0 45 0;
#X connect 43 0 44 0;
#X connect 44 0 43 1;
#X connect 45 0 48 0;
#X connect 46 0 43 0;
#X connect 47 0 44 1;
#X connect 48 0 49 0;
#X connect 48 0 52 0;
#X connect 50 0 37 0;
#X connect 51 0 42 0;
#X connect 51 1 42 1;
#X connect 52 0 44 0;
#X connect 53 0 54 0;
#X connect 54 0 37 0;
#X connect 56 0 57 0;
#X connect 57 0 58 0;
#X connect 57 0 63 0;
#X connect 58 0 59 0;
#X connect 59 0 26 1;
#X connect 60 0 61 0;
#X connect 60 1 61 1;
#X connect 61 0 62 0;
#X connect 62 0 56 0;
#X connect 63 0 26 0;
#X connect 64 0 70 0;
#X connect 65 0 27 0;
#X connect 65 1 20 1;
#X connect 66 0 8 1;
#X connect 69 0 21 1;
#X connect 70 0 9 0;
#X connect 70 0 9 1;
#X connect 71 0 70 1;
#X connect 72 0 70 2;
