#N canvas -8 -8 1920 997 12;
#X obj 104 424 adc~;
#X msg 198 469 start;
#X msg 268 485 stop;
#X obj 95 327 tgl 15 0 empty empty empty 17 7 0 10 -262144 -1 -1 1
1;
#X floatatom 457 470 5 0 0 0 - - -;
#X obj 435 914 *~;
#X obj 110 1194 dac~;
#N canvas 0 50 450 250 (subpatch) 0;
#X array audioData 1e+006 float 2;
#X coords 0 1 1e+006 -1 200 140 1 0 0;
#X restore 688 216 graph;
#X msg 298 775 0;
#X obj 153 517 tabwrite~ audioData;
#X obj 434 971 tabread4~ audioData;
#X obj 353 410 delay 100;
#X floatatom 453 361 5 0 0 0 - - -;
#X obj 95 346 sel 1;
#X obj 453 337 random 200;
#X obj 361 695 bng 15 250 50 0 empty empty empty 17 7 0 10 -262144
-1 -1;
#X obj 410 768 /;
#X obj 451 394 + 10;
#X obj 514 292 * 200;
#X obj 185 562 bng 15 250 50 0 empty empty empty 17 7 0 10 -262144
-1 -1;
#X obj 527 408 hsl 128 15 0 1 0 0 empty empty empty -2 -8 0 10 -262144
-1 -1 3700 1;
#X obj 519 248 hsl 128 15 0 1 0 0 empty empty empty -2 -8 0 10 -262144
-1 -1 0 1;
#X obj 527 516 metro 3;
#X obj 305 270 bng 15 250 50 0 empty empty empty 17 7 0 10 -262144
-1 -1;
#X msg 361 723 -1000;
#X obj 541 835 * 44.1;
#X obj 361 670 sel 1, f 9;
#X obj 421 700 bng 15 250 50 0 empty empty empty 17 7 0 10 -262144
-1 -1;
#X floatatom 608 696 5 0 0 0 - - -;
#X floatatom 640 584 5 0 0 0 - - -;
#X obj 607 613 t b;
#X obj 717 715 / 100;
#X obj 608 761 -;
#X floatatom 717 744 5 0 0 0 - - -;
#X msg 73 373 \; audioData const 0;
#X obj 493 739 /;
#X obj 275 234 r Trigger @owl B1;
#X obj 523 378 r Length @owl C;
#X obj 514 220 r Randomlenghth @owl B;
#X obj 190 106 notein;
#X obj 191 135 stripnote;
#X floatatom 190 179 3 0 0 0 - - -;
#X obj 190 244 bng 20 250 50 0 empty empty empty 17 7 0 10 -262144
-1 -1;
#X msg 608 642 2;
#X obj 608 671 pow, f 5;
#X obj 345 859 phasor~;
#X obj 583 973 expr~ sin((3.141592653598979323846 * $v1)/($i2 -1))
;
#X text 643 947 cosine Window;
#X obj 434 1021 *~;
#X obj 493 866 *;
#X obj 433 1154 bitcru;
#X obj 455 1101 hsl 128 15 0 1 0 0 empty empty empty -2 -8 0 10 -262144
-1 -1 12500 1;
#X obj 525 1128 hsl 128 15 0 1 0 0 empty empty empty -2 -8 0 10 -262144
-1 -1 11300 1;
#X text 805 708 random detune;
#X obj 1061 728 hsl 128 15 -0.5 0.25 0 0 empty empty empty -2 -8 0
10 -262144 -1 -1 8501 1;
#X floatatom 1058 748 5 0 0 0 - - -;
#X text 1199 756 detune;
#X obj 527 488 t b f, f 7;
#X obj 670 774 +;
#X obj 238 603 tgl 15 0 empty empty empty 17 7 0 10 -262144 -1 -1 0
1;
#X floatatom 1041 993 3 0 0 0 - - -;
#X floatatom 1011 992 3 0 0 0 - - -;
#X obj 1011 967 ctlin;
#X obj 997 1071 / 127;
#X floatatom 1096 554 3 0 0 0 - - -;
#X floatatom 1066 553 3 0 0 0 - - -;
#X obj 1066 528 ctlin, f 9;
#X obj 190 211 sel 1;
#X obj 1066 635 f;
#X obj 970 449 mtof;
#X floatatom 951 483 5 0 0 0 - - -;
#X obj 869 545 / 440;
#X obj 1071 280 notein;
#X obj 1071 304 stripnote;
#X floatatom 1070 329 3 0 0 0 - - -;
#X obj 1105 357 sel 1;
#X obj 1060 404 f;
#X obj 608 730 *;
#X obj 1053 1058 f;
#X msg 832 476 440;
#X obj 1084 1024 sel 62;
#X floatatom 696 1022 3 0 0 0 - - -;
#X floatatom 668 1021 3 0 0 0 - - -;
#X obj 668 996 ctlin;
#X obj 650 1070 / 127;
#X obj 650 1045 f;
#X obj 1065 699 / 1000;
#X obj 1096 586 sel 16;
#X obj 519 442 * 5000;
#X msg 421 723 1000;
#X obj 371 593 *;
#X floatatom 369 471 3 0 0 0 - - -;
#X floatatom 339 470 3 0 0 0 - - -;
#X obj 339 445 ctlin, f 9;
#X obj 333 528 f;
#X obj 369 503 sel 17;
#X obj 333 552 / 127;
#X floatatom 403 546 5 0 0 0 - - -;
#X obj 696 1045 sel 18;
#X obj 373 549 t b;
#X floatatom 507 772 5 0 0 0 - - -;
#X obj 507 795 s updatelen;
#X obj 622 481 r updatelen;
#X msg 415 843 0;
#X obj 377 804 t f b;
#X obj 361 645 random 2, f 11;
#X obj 157 1100 *~;
#X obj 218 1099 *~;
#X msg 186 945 1;
#X obj 218 888 random 100;
#X obj 218 912 / 100;
#X obj 204 985 -;
#X obj 926 210 sigmund~;
#X floatatom 926 234 5 0 0 0 - - -;
#X obj 955 264 sel -1500;
#X obj 934 303 f;
#X text 1004 226 audio pitch controller;
#X text 1138 324 midi pitch controller;
#X obj 132 665 s~ audio2midi;
#X obj 926 186 r~ audio2midi;
#X obj 831 595 t b f;
#X obj 512 665 t b f;
#X msg 575 712 2;
#X obj 640 558 random 2;
#X obj 717 687 random 4;
#X connect 0 0 9 0;
#X connect 0 0 118 0;
#X connect 0 1 9 0;
#X connect 1 0 9 0;
#X connect 2 0 9 0;
#X connect 3 0 13 0;
#X connect 4 0 35 0;
#X connect 4 0 57 0;
#X connect 5 0 10 0;
#X connect 5 0 46 0;
#X connect 8 0 45 0;
#X connect 10 0 48 0;
#X connect 11 0 2 0;
#X connect 12 0 17 0;
#X connect 13 1 34 0;
#X connect 14 0 12 0;
#X connect 15 0 24 0;
#X connect 16 0 104 0;
#X connect 17 0 11 1;
#X connect 17 0 97 0;
#X connect 18 0 14 1;
#X connect 19 0 8 0;
#X connect 19 0 59 0;
#X connect 20 0 88 0;
#X connect 21 0 18 0;
#X connect 22 0 105 0;
#X connect 22 0 109 0;
#X connect 22 0 123 0;
#X connect 22 0 124 0;
#X connect 23 0 3 0;
#X connect 23 0 11 0;
#X connect 23 0 1 0;
#X connect 23 0 14 0;
#X connect 23 0 79 0;
#X connect 24 0 16 0;
#X connect 25 0 49 1;
#X connect 26 0 15 0;
#X connect 26 1 27 0;
#X connect 27 0 89 0;
#X connect 28 0 77 0;
#X connect 29 0 30 0;
#X connect 29 0 44 1;
#X connect 30 0 35 0;
#X connect 30 0 43 0;
#X connect 30 0 49 0;
#X connect 31 0 33 0;
#X connect 31 0 58 0;
#X connect 32 0 25 0;
#X connect 32 0 35 1;
#X connect 32 0 121 0;
#X connect 35 0 16 1;
#X connect 35 0 49 0;
#X connect 35 0 100 0;
#X connect 36 0 23 0;
#X connect 37 0 20 0;
#X connect 38 0 21 0;
#X connect 39 0 40 0;
#X connect 39 1 40 1;
#X connect 40 0 41 0;
#X connect 41 0 67 0;
#X connect 42 0 23 0;
#X connect 43 0 44 0;
#X connect 44 0 28 0;
#X connect 45 0 5 0;
#X connect 46 0 48 1;
#X connect 48 0 50 0;
#X connect 49 0 5 1;
#X connect 49 0 46 1;
#X connect 50 0 6 1;
#X connect 50 0 6 0;
#X connect 50 0 106 0;
#X connect 50 0 107 0;
#X connect 51 0 50 1;
#X connect 52 0 50 2;
#X connect 54 0 55 0;
#X connect 55 0 58 1;
#X connect 57 0 22 0;
#X connect 57 1 22 1;
#X connect 58 0 32 1;
#X connect 59 0 22 0;
#X connect 60 0 80 0;
#X connect 61 0 78 1;
#X connect 62 0 61 0;
#X connect 62 1 60 0;
#X connect 63 0 52 0;
#X connect 64 0 87 0;
#X connect 65 0 68 1;
#X connect 66 0 65 0;
#X connect 66 1 64 0;
#X connect 67 0 42 0;
#X connect 68 0 86 0;
#X connect 69 0 70 0;
#X connect 70 0 71 0;
#X connect 71 0 120 0;
#X connect 72 0 73 0;
#X connect 72 1 73 1;
#X connect 73 0 74 0;
#X connect 74 0 75 0;
#X connect 74 0 76 1;
#X connect 75 1 76 0;
#X connect 76 0 69 0;
#X connect 77 0 32 0;
#X connect 78 0 63 0;
#X connect 79 0 71 0;
#X connect 80 0 78 0;
#X connect 81 0 98 0;
#X connect 82 0 85 1;
#X connect 83 0 82 0;
#X connect 83 1 81 0;
#X connect 84 0 51 0;
#X connect 85 0 84 0;
#X connect 86 0 54 0;
#X connect 87 0 68 0;
#X connect 88 0 17 1;
#X connect 89 0 16 0;
#X connect 90 0 4 0;
#X connect 91 0 95 0;
#X connect 92 0 94 1;
#X connect 93 0 92 0;
#X connect 93 1 91 0;
#X connect 94 0 96 0;
#X connect 95 0 94 0;
#X connect 96 0 90 0;
#X connect 97 0 90 1;
#X connect 97 0 99 0;
#X connect 98 0 85 0;
#X connect 99 0 90 0;
#X connect 100 0 101 0;
#X connect 102 0 22 1;
#X connect 103 0 45 1;
#X connect 104 0 45 0;
#X connect 104 1 103 0;
#X connect 105 0 26 0;
#X connect 106 0 6 0;
#X connect 107 0 6 1;
#X connect 108 0 111 0;
#X connect 109 0 110 0;
#X connect 110 0 108 0;
#X connect 110 0 111 1;
#X connect 110 0 107 1;
#X connect 111 0 106 1;
#X connect 112 0 113 0;
#X connect 113 0 114 0;
#X connect 113 0 115 1;
#X connect 114 1 115 0;
#X connect 119 0 112 0;
#X connect 120 0 77 0;
#X connect 120 1 77 1;
#X connect 121 0 35 0;
#X connect 121 1 35 1;
#X connect 122 0 77 0;
#X connect 123 0 29 0;
#X connect 124 0 31 0;
