#N canvas -8 0 1920 966 12;
#X obj 36 381 adc~;
#X msg 96 477 start;
#X msg 198 464 stop;
#X obj 559 68 tgl 15 0 empty empty empty 17 7 0 10 -262144 -1 -1 0
1;
#X floatatom 456 470 5 0 0 0 - - -;
#X obj 435 914 *~;
#X obj 294 1330 dac~;
#N canvas 0 50 1187 700 (subpatch) 0;
#X array audioData 264600 float 2;
#X coords 0 1 264600 -1 500 300 1 0 0;
#X restore 726 26 graph;
#X msg 237 832 0;
#X obj 96 514 tabwrite~ audioData;
#X obj 438 1021 tabread4~ audioData;
#X floatatom 257 263 5 0 0 0 - - -;
#X obj 559 87 sel 1;
#X obj 257 239 random 200;
#X obj 270 671 bng 15 250 50 0 empty empty empty 17 7 0 10 -262144
-1 -1;
#X obj 287 752 /;
#X obj 295 307 + 10;
#X obj 343 196 * 200;
#X obj 1266 51 bng 50 250 50 0 empty empty empty 17 7 0 10 -262144
-1 -1;
#X obj 346 175 hsl 128 15 0 1 0 0 empty empty empty -2 -8 0 10 -75759
-1 -1 0 1;
#X obj 551 548 metro 3;
#X msg 270 699 -1000;
#X obj 600 823 * 44.1;
#X obj 270 646 sel 1, f 9;
#X obj 330 676 bng 15 250 50 0 empty empty empty 17 7 0 10 -262144
-1 -1;
#X floatatom 746 572 5 0 0 0 - - -;
#X floatatom 778 460 5 0 0 0 - - -;
#X obj 747 488 t b;
#X obj 1114 572 / 100;
#X obj 625 676 -;
#X floatatom 1115 601 5 0 0 0 - - -;
#X msg 537 114 \; audioData const 0;
#X obj 493 739 /;
#X obj 1424 155 r Trigger @owl B1;
#X obj 343 148 r Randomlenghth @owl B;
#X obj 1375 52 notein;
#X obj 1376 81 stripnote;
#X floatatom 1375 125 3 0 0 0 - - -;
#X obj 1378 185 bng 50 250 50 0 empty empty empty 17 7 0 10 -258113
-1 -1;
#X msg 746 518 2;
#X obj 746 547 pow, f 5;
#X obj 282 856 phasor~;
#X obj 586 1020 expr~ sin((3.141592653598979323846 * $v1)/($i2 -1))
;
#X text 646 994 cosine Window;
#X obj 437 1068 *~;
#X obj 493 866 *;
#X obj 436 1201 bitcru;
#X obj 1379 560 hsl 128 15 0 1 0 0 empty empty empty -2 -8 0 10 -4032
-1 -1 0 1;
#X text 1174 570 random detune;
#X floatatom 1142 689 5 0 0 0 - - -;
#X text 1213 653 detune;
#X obj 551 517 t b f, f 7;
#X obj 878 715 +;
#X obj 534 490 tgl 15 0 empty empty empty 17 7 0 10 -262144 -1 -1 0
1;
#X floatatom 1712 478 3 0 0 0 - - -;
#X floatatom 1682 477 3 0 0 0 - - -;
#X obj 1682 452 ctlin;
#X obj 1681 566 / 127;
#X obj 1375 157 sel 1;
#X obj 1053 387 mtof;
#X floatatom 1053 412 5 0 0 0 - - -;
#X obj 1053 454 / 440;
#X obj 1693 257 notein;
#X obj 1693 281 stripnote;
#X floatatom 1692 306 3 0 0 0 - - -;
#X obj 1727 334 sel 1;
#X obj 1682 381 f;
#X obj 747 634 *;
#X obj 1681 540 f;
#X msg 975 382 440;
#X obj 1712 506 sel 62;
#X obj 336 287 * 5000;
#X msg 330 699 1000;
#X obj 444 428 *;
#X floatatom 1405 675 3 0 0 0 - - -;
#X floatatom 1375 674 3 0 0 0 - - -;
#X obj 1375 649 ctlin, f 9;
#X obj 1370 731 f;
#X obj 1405 707 sel 17;
#X floatatom 461 353 5 0 0 0 - - -;
#X obj 434 386 t b;
#X floatatom 507 772 5 0 0 0 - - -;
#X msg 320 811 0;
#X obj 286 780 t f b;
#X obj 270 621 random 2, f 11;
#X obj 293 1271 *~;
#X obj 321 1272 *~;
#X msg 291 1187 1;
#X obj 323 1130 random 100;
#X obj 324 1154 / 100;
#X obj 291 1211 -;
#X obj 1376 299 sigmund~;
#X floatatom 1376 323 5 0 0 0 - - -;
#X obj 1398 347 sel -1500;
#X obj 1376 386 f;
#X text 1459 300 audio pitch controller;
#X text 1760 301 midi pitch controller;
#X obj 44 561 s~ audio2midi;
#X obj 1376 275 r~ audio2midi;
#X obj 1053 483 t b f;
#X obj 498 711 t b f;
#X msg 713 588 2;
#X obj 552 576 s grainbang;
#X obj 778 378 r grainbang;
#X obj 1114 493 r grainbang;
#X obj 323 1104 r grainbang;
#X obj 248 585 r grainbang;
#X obj 1378 241 s rec_bang;
#X obj 565 36 r rec_bang;
#X obj 95 450 r rec_bang;
#X obj 161 401 r rec_bang;
#X obj 240 194 r rec_bang;
#X obj 975 355 r rec_bang;
#X text 1505 111 record trigger;
#X text 802 486 random octave;
#X obj 1266 123 s stop;
#X obj 237 808 r stop;
#X obj 534 467 r stop;
#X text 1274 103 stop trigger;
#X floatatom 1711 69 3 0 0 0 - - -;
#X floatatom 1681 68 3 0 0 0 - - -;
#X obj 1681 43 ctlin, f 9;
#X obj 1682 133 f;
#X obj 1681 161 / 1000;
#X obj 1711 101 sel 16;
#X text 1468 16 Midi Control Section;
#X obj 1678 214 s detune;
#X obj 1145 659 r detune;
#X obj 1682 405 s midi_pitch;
#X obj 1055 356 r midi_pitch;
#X text 1776 116 detune;
#X obj 1377 412 s midi_pitch;
#X obj 1679 621 s volume;
#X text 1754 473 volume;
#X obj 475 1176 r volume;
#X floatatom 1422 479 3 0 0 0 - - -;
#X floatatom 1394 478 3 0 0 0 - - -;
#X obj 1394 453 ctlin;
#X obj 1376 527 / 127;
#X obj 1376 502 f;
#X obj 1422 502 sel 18;
#X text 1540 470 bit depth;
#X obj 1375 585 s bit_depth;
#X obj 455 1151 r bit_depth;
#X obj 1375 813 s grain_len;
#X obj 349 386 r grain_len;
#X text 1517 691 grain length;
#X obj 1371 757 / 127;
#X obj 608 516 r update_len;
#X obj 507 795 s update_len;
#X obj 1377 789 hsl 128 15 0 1 0 0 empty empty empty -2 -8 0 10 -261234
-1 -1 0 1;
#X obj 1680 188 hsl 128 15 -0.5 0.25 0 0 empty empty empty -2 -8 0
10 -2112 -1 -1 0 1;
#X obj 1682 593 hsl 128 15 0 1 0 0 empty empty empty -2 -8 0 10 -159808
-1 -1 0 1;
#X obj 1668 809 hsl 128 15 0 1 0 0 empty empty empty -2 -8 0 10 -2112
-1 -1 0 1;
#X obj 1728 768 r Length @owl C;
#X floatatom 1701 690 3 0 0 0 - - -;
#X floatatom 1671 689 3 0 0 0 - - -;
#X obj 1671 664 ctlin, f 9;
#X obj 1666 746 f;
#X text 1762 705 grain length;
#X obj 1667 772 / 127;
#X obj 1701 722 sel 19;
#X obj 1665 829 s buffer_len;
#X obj 339 258 r buffer_len;
#X obj 1374 1118 s octave_amount;
#X floatatom 1409 904 3 0 0 0 - - -;
#X floatatom 1381 902 3 0 0 0 - - -;
#X obj 1379 878 ctlin, f 9;
#X obj 1374 960 f;
#X obj 1375 986 / 127;
#X obj 1409 936 sel 20;
#X floatatom 1374 1087 5 0 0 0 - - -;
#X floatatom 1375 1034 5 0 0 0 - - -;
#X obj 1373 1062 expr round($f1);
#X text 1482 999 random octave amount;
#X obj 817 403 r octave_amount;
#X floatatom 1671 918 3 0 0 0 - - -;
#X floatatom 1643 916 3 0 0 0 - - -;
#X obj 1641 892 ctlin, f 9;
#X obj 1636 974 f;
#X obj 1637 1000 / 127;
#X floatatom 1636 1101 5 0 0 0 - - -;
#X floatatom 1637 1048 5 0 0 0 - - -;
#X obj 1635 1076 expr round($f1);
#X text 1744 1013 random detune amount;
#X obj 1671 950 sel 21;
#X obj 1637 1024 * 20;
#X obj 1636 1132 s detune_amount;
#X obj 1153 517 r detune_amount;
#X obj 1375 1010 * 4;
#X obj 199 440 delay;
#X obj 778 434 random;
#X obj 1114 544 random;
#X connect 0 0 9 0;
#X connect 0 0 97 0;
#X connect 0 1 9 0;
#X connect 1 0 9 0;
#X connect 2 0 9 0;
#X connect 3 0 12 0;
#X connect 4 0 32 0;
#X connect 4 0 51 0;
#X connect 5 0 10 0;
#X connect 5 0 42 0;
#X connect 8 0 41 0;
#X connect 10 0 44 0;
#X connect 11 0 16 0;
#X connect 12 1 31 0;
#X connect 13 0 11 0;
#X connect 14 0 21 0;
#X connect 15 0 83 0;
#X connect 16 0 79 0;
#X connect 16 0 190 1;
#X connect 17 0 13 1;
#X connect 18 0 115 0;
#X connect 19 0 17 0;
#X connect 20 0 102 0;
#X connect 21 0 15 0;
#X connect 22 0 45 1;
#X connect 23 0 14 0;
#X connect 23 1 24 0;
#X connect 24 0 72 0;
#X connect 25 0 67 0;
#X connect 26 0 27 0;
#X connect 26 0 40 1;
#X connect 27 0 39 0;
#X connect 28 0 30 0;
#X connect 28 0 52 0;
#X connect 29 0 22 0;
#X connect 29 0 100 0;
#X connect 32 0 15 1;
#X connect 32 0 45 0;
#X connect 32 0 81 0;
#X connect 33 0 38 0;
#X connect 34 0 19 0;
#X connect 35 0 36 0;
#X connect 35 1 36 1;
#X connect 36 0 37 0;
#X connect 37 0 58 0;
#X connect 38 0 107 0;
#X connect 39 0 40 0;
#X connect 40 0 25 0;
#X connect 41 0 5 0;
#X connect 42 0 44 1;
#X connect 44 0 46 0;
#X connect 45 0 5 1;
#X connect 45 0 42 1;
#X connect 46 0 85 0;
#X connect 46 0 86 0;
#X connect 47 0 142 0;
#X connect 49 0 52 1;
#X connect 51 0 20 0;
#X connect 51 1 20 1;
#X connect 52 0 29 1;
#X connect 53 0 20 0;
#X connect 54 0 70 0;
#X connect 55 0 68 1;
#X connect 56 0 55 0;
#X connect 56 1 54 0;
#X connect 57 0 152 0;
#X connect 58 0 38 0;
#X connect 59 0 60 0;
#X connect 61 0 99 0;
#X connect 62 0 63 0;
#X connect 62 1 63 1;
#X connect 63 0 64 0;
#X connect 64 0 65 0;
#X connect 64 0 66 1;
#X connect 65 1 66 0;
#X connect 66 0 128 0;
#X connect 67 0 29 0;
#X connect 68 0 57 0;
#X connect 69 0 61 0;
#X connect 70 0 68 0;
#X connect 71 0 16 1;
#X connect 72 0 15 0;
#X connect 73 0 4 0;
#X connect 74 0 78 0;
#X connect 75 0 77 1;
#X connect 76 0 75 0;
#X connect 76 1 74 0;
#X connect 77 0 147 0;
#X connect 78 0 77 0;
#X connect 79 0 73 1;
#X connect 79 0 80 0;
#X connect 80 0 73 0;
#X connect 81 0 149 0;
#X connect 82 0 41 1;
#X connect 83 0 41 0;
#X connect 83 1 82 0;
#X connect 84 0 23 0;
#X connect 85 0 6 0;
#X connect 86 0 6 1;
#X connect 87 0 90 0;
#X connect 88 0 89 0;
#X connect 89 0 87 0;
#X connect 89 0 90 1;
#X connect 89 0 86 1;
#X connect 90 0 85 1;
#X connect 91 0 92 0;
#X connect 92 0 93 0;
#X connect 92 0 94 1;
#X connect 93 1 94 0;
#X connect 94 0 131 0;
#X connect 98 0 91 0;
#X connect 99 0 67 0;
#X connect 99 1 67 1;
#X connect 100 0 32 0;
#X connect 100 1 32 1;
#X connect 101 0 67 0;
#X connect 103 0 191 0;
#X connect 104 0 192 0;
#X connect 105 0 88 0;
#X connect 106 0 84 0;
#X connect 108 0 3 0;
#X connect 109 0 1 0;
#X connect 110 0 190 0;
#X connect 111 0 13 0;
#X connect 112 0 69 0;
#X connect 116 0 8 0;
#X connect 117 0 53 0;
#X connect 119 0 124 0;
#X connect 120 0 122 1;
#X connect 121 0 120 0;
#X connect 121 1 119 0;
#X connect 122 0 123 0;
#X connect 123 0 151 0;
#X connect 124 0 122 0;
#X connect 127 0 49 0;
#X connect 129 0 59 0;
#X connect 134 0 46 2;
#X connect 135 0 140 0;
#X connect 136 0 139 1;
#X connect 137 0 136 0;
#X connect 137 1 135 0;
#X connect 138 0 47 0;
#X connect 139 0 138 0;
#X connect 140 0 139 0;
#X connect 143 0 46 1;
#X connect 145 0 73 0;
#X connect 147 0 150 0;
#X connect 148 0 20 1;
#X connect 150 0 144 0;
#X connect 151 0 126 0;
#X connect 152 0 132 0;
#X connect 153 0 162 0;
#X connect 154 0 153 0;
#X connect 155 0 161 0;
#X connect 156 0 158 1;
#X connect 157 0 156 0;
#X connect 157 1 155 0;
#X connect 158 0 160 0;
#X connect 160 0 153 0;
#X connect 161 0 158 0;
#X connect 163 0 71 0;
#X connect 165 0 170 0;
#X connect 166 0 168 1;
#X connect 167 0 166 0;
#X connect 167 1 165 0;
#X connect 168 0 169 0;
#X connect 169 0 189 0;
#X connect 170 0 168 0;
#X connect 171 0 164 0;
#X connect 173 0 171 0;
#X connect 175 0 191 1;
#X connect 176 0 185 0;
#X connect 177 0 179 1;
#X connect 178 0 177 0;
#X connect 178 1 176 0;
#X connect 179 0 180 0;
#X connect 180 0 186 0;
#X connect 181 0 187 0;
#X connect 183 0 181 0;
#X connect 185 0 179 0;
#X connect 186 0 182 0;
#X connect 186 0 183 0;
#X connect 188 0 192 1;
#X connect 189 0 172 0;
#X connect 189 0 173 0;
#X connect 190 0 2 0;
#X connect 191 0 26 0;
#X connect 192 0 28 0;
