#N canvas -8 -8 960 997 12;
#X obj 105 202 adc~;
#X msg 199 203 start;
#X msg 269 219 stop;
#X obj 275 54 tgl 15 0 empty empty empty 17 7 0 10 -262144 -1 -1 0
1;
#X obj 436 74 bng 15 250 50 0 empty empty empty 17 7 0 10 -262144 -1
-1;
#X obj 468 79 bng 15 250 50 0 empty empty empty 17 7 0 10 -262144 -1
-1;
#X floatatom 463 255 5 0 0 0 - - -;
#X obj 417 487 phasor~;
#X obj 417 533 *~;
#X obj 490 503 * 44.1;
#X obj 416 699 *~;
#X obj 147 781 dac~;
#N canvas 0 50 450 250 (subpatch) 0;
#X array audioData 100000 float 2;
#X coords 0 1 100000 -1 200 140 1 0 0;
#X restore 631 31 graph;
#X obj 483 638 hsl 128 15 0 1 0 0 empty empty empty -2 -8 0 10 -262144
-1 -1 0 1;
#X msg 318 275 0;
#X obj 154 251 tabwrite~ audioData;
#X obj 415 594 tabread4~ audioData;
#X obj 354 188 delay 100;
#X obj 435 36 t b b;
#X floatatom 454 139 5 0 0 0 - - -;
#X obj 271 97 sel 1;
#X obj 454 115 random 200;
#X obj 396 345 bng 15 250 50 0 empty empty empty 17 7 0 10 -262144
-1 -1;
#X obj 418 435 /;
#X obj 452 172 + 10;
#X obj 276 12 r Channel-Push;
#X obj 600 595 r Channel-A;
#X msg 398 381 1000;
#X obj 519 17 r Channel-B;
#X obj 521 57 * 200;
#X obj 524 156 r Channel-C;
#X obj 338 238 bng 15 250 50 0 empty empty empty 17 7 0 10 -262144
-1 -1;
#X obj 519 192 hsl 128 15 0 1 0 0 empty empty empty -2 -8 0 10 -262144
-1 -1 0 1;
#X obj 464 302 t b f f;
#X obj 520 220 * 700;
#X connect 0 0 15 0;
#X connect 0 0 11 0;
#X connect 0 0 11 1;
#X connect 0 1 11 1;
#X connect 0 1 15 0;
#X connect 1 0 15 0;
#X connect 2 0 15 0;
#X connect 3 0 20 0;
#X connect 4 0 1 0;
#X connect 5 0 17 0;
#X connect 5 0 21 0;
#X connect 6 0 33 0;
#X connect 7 0 8 0;
#X connect 8 0 16 0;
#X connect 9 0 8 1;
#X connect 10 0 11 0;
#X connect 10 0 11 1;
#X connect 13 0 10 1;
#X connect 14 0 7 0;
#X connect 16 0 10 0;
#X connect 17 0 2 0;
#X connect 18 0 4 0;
#X connect 18 1 5 0;
#X connect 19 0 24 0;
#X connect 20 0 18 0;
#X connect 20 1 31 0;
#X connect 21 0 19 0;
#X connect 22 0 27 0;
#X connect 23 0 7 0;
#X connect 24 0 17 1;
#X connect 24 0 6 0;
#X connect 25 0 3 0;
#X connect 26 0 13 0;
#X connect 27 0 23 0;
#X connect 28 0 29 0;
#X connect 29 0 21 1;
#X connect 30 0 32 0;
#X connect 31 0 14 0;
#X connect 32 0 34 0;
#X connect 33 0 22 0;
#X connect 33 1 23 1;
#X connect 33 2 9 0;
#X connect 34 0 24 1;
